<svg width="72" height="72" viewBox="0 0 72 72" fill="none" xmlns="http://www.w3.org/2000/svg">
    <path d="M21.1465 1.33504L50.1738 0.987429L70.945 21.2671L71.2926 50.2944L51.013 71.0656L21.9857 71.4132L1.21446 51.1336L0.86685 22.1063L21.1465 1.33504Z" fill="#CC0000"/>
    <path d="M23.7232 19.2154C24.0684 19.2154 24.371 19.1706 24.631 19.0811C24.8952 18.9916 25.1147 18.8659 25.2894 18.704C25.4684 18.5378 25.6026 18.3417 25.6921 18.1158C25.7816 17.8857 25.8264 17.6321 25.8264 17.3551C25.8264 16.7968 25.6517 16.3579 25.3022 16.0382C24.957 15.7186 24.4307 15.5588 23.7232 15.5588H22.304V19.2154H23.7232ZM23.7232 14.4912C24.3113 14.4912 24.8227 14.5594 25.2574 14.6958C25.6921 14.8321 26.0523 15.0261 26.3378 15.2775C26.6233 15.5247 26.8343 15.8251 26.9707 16.1789C27.1113 16.5326 27.1816 16.9247 27.1816 17.3551C27.1816 17.7856 27.1071 18.1819 26.9579 18.5442C26.8087 18.9021 26.5892 19.2111 26.2994 19.4711C26.0096 19.7311 25.6474 19.9335 25.2127 20.0784C24.7823 20.219 24.2858 20.2894 23.7232 20.2894H22.304V23.6711H20.9424V14.4912H23.7232Z" fill="white"/>
    <path d="M37.2369 19.0811C37.2369 19.7673 37.1261 20.398 36.9045 20.9734C36.6872 21.5445 36.3782 22.0388 35.9776 22.4565C35.577 22.8699 35.0975 23.1916 34.5392 23.4218C33.9809 23.6519 33.3608 23.767 32.6789 23.767C32.0013 23.767 31.3812 23.6519 30.8187 23.4218C30.2604 23.1916 29.7809 22.8699 29.3803 22.4565C28.984 22.0388 28.675 21.5445 28.4534 20.9734C28.2318 20.398 28.121 19.7673 28.121 19.0811C28.121 18.3993 28.2318 17.7706 28.4534 17.1953C28.675 16.62 28.984 16.1256 29.3803 15.7122C29.7809 15.2945 30.2604 14.9706 30.8187 14.7405C31.3812 14.5061 32.0013 14.3889 32.6789 14.3889C33.3608 14.3889 33.9809 14.5061 34.5392 14.7405C35.0975 14.9706 35.577 15.2945 35.9776 15.7122C36.3782 16.1256 36.6872 16.62 36.9045 17.1953C37.1261 17.7706 37.2369 18.3993 37.2369 19.0811ZM35.8433 19.0811C35.8433 18.5356 35.7687 18.0455 35.6196 17.6108C35.4704 17.1761 35.2573 16.8075 34.9803 16.5049C34.7076 16.2023 34.3751 15.97 33.983 15.8081C33.5952 15.6461 33.1605 15.5652 32.6789 15.5652C32.1974 15.5652 31.7605 15.6461 31.3684 15.8081C30.9806 15.97 30.6482 16.2023 30.3712 16.5049C30.0942 16.8075 29.8811 17.1761 29.7319 17.6108C29.5828 18.0455 29.5082 18.5356 29.5082 19.0811C29.5082 19.6309 29.5828 20.1232 29.7319 20.5579C29.8811 20.9883 30.0942 21.3548 30.3712 21.6574C30.6482 21.96 30.9806 22.1922 31.3684 22.3542C31.7605 22.5119 32.1974 22.5907 32.6789 22.5907C33.1605 22.5907 33.5952 22.5119 33.983 22.3542C34.3751 22.1922 34.7076 21.96 34.9803 21.6574C35.2573 21.3548 35.4704 20.9883 35.6196 20.5579C35.7687 20.1232 35.8433 19.6309 35.8433 19.0811Z" fill="white"/>
    <path d="M43.6965 15.9871C43.6539 16.0595 43.6092 16.1128 43.5623 16.1469C43.5154 16.181 43.4557 16.198 43.3833 16.198C43.3066 16.198 43.2192 16.164 43.1212 16.0958C43.0232 16.0233 42.8996 15.9445 42.7504 15.8592C42.6055 15.7697 42.4308 15.6909 42.2262 15.6227C42.0216 15.5503 41.7766 15.514 41.4911 15.514C41.2226 15.514 40.986 15.5503 40.7815 15.6227C40.5812 15.6909 40.4128 15.7868 40.2764 15.9104C40.1401 16.0297 40.0357 16.1725 39.9632 16.3387C39.895 16.5006 39.8609 16.6775 39.8609 16.8693C39.8609 17.1165 39.9227 17.321 40.0463 17.483C40.1742 17.6449 40.3404 17.7834 40.5449 17.8985C40.7495 18.0136 40.9818 18.1137 41.2417 18.199C41.5017 18.2842 41.7681 18.3737 42.0408 18.4674C42.3136 18.5569 42.5799 18.6614 42.8399 18.7807C43.0999 18.9 43.3321 19.0513 43.5367 19.2346C43.7413 19.4136 43.9054 19.6352 44.0289 19.8994C44.1568 20.1594 44.2207 20.479 44.2207 20.8583C44.2207 21.2632 44.1504 21.6425 44.0098 21.9962C43.8734 22.3499 43.6731 22.6589 43.4089 22.9231C43.1446 23.1874 42.8186 23.3962 42.4308 23.5496C42.0472 23.6988 41.6104 23.7734 41.1203 23.7734C40.8262 23.7734 40.5407 23.7435 40.2637 23.6839C39.9866 23.6285 39.7245 23.5496 39.4774 23.4473C39.2302 23.3408 38.9979 23.2151 38.7806 23.0702C38.5675 22.921 38.3757 22.7548 38.2052 22.5715L38.5952 21.9195C38.6335 21.8684 38.6783 21.8257 38.7294 21.7916C38.7848 21.7575 38.8466 21.7405 38.9148 21.7405C39.0043 21.7405 39.1066 21.7874 39.2216 21.8811C39.341 21.9749 39.4859 22.0793 39.6564 22.1944C39.8311 22.3052 40.0378 22.4075 40.2764 22.5012C40.5194 22.595 40.8134 22.6419 41.1586 22.6419C41.4399 22.6419 41.6914 22.6056 41.913 22.5332C42.1346 22.4565 42.32 22.3499 42.4691 22.2136C42.6226 22.0729 42.7398 21.9046 42.8207 21.7085C42.9017 21.5125 42.9422 21.2951 42.9422 21.0565C42.9422 20.788 42.8804 20.5685 42.7568 20.398C42.6332 20.2276 42.4691 20.0848 42.2646 19.9697C42.06 19.8547 41.8277 19.7566 41.5678 19.6757C41.3078 19.5947 41.0414 19.5116 40.7687 19.4263C40.4959 19.3369 40.2296 19.2346 39.9696 19.1195C39.7096 19.0044 39.4774 18.8553 39.2728 18.672C39.0682 18.4845 38.9041 18.2522 38.7806 17.9752C38.657 17.6939 38.5952 17.3487 38.5952 16.9396C38.5952 16.6114 38.6591 16.2939 38.7869 15.9871C38.9148 15.6802 39.1002 15.4096 39.3431 15.1752C39.5903 14.9366 39.8929 14.7469 40.2509 14.6063C40.6089 14.4614 41.018 14.3889 41.4783 14.3889C41.9939 14.3889 42.467 14.472 42.8974 14.6382C43.3321 14.8002 43.7093 15.0346 44.0289 15.3414L43.6965 15.9871Z" fill="white"/>
    <path d="M52.1597 15.6291H49.2447V23.6711H47.8894V15.6291H44.9616V14.4912H52.1597V15.6291Z" fill="white"/>
    <path d="M19.2495 32.2886C19.1721 32.4433 19.0807 32.5523 18.9752 32.6156C18.8768 32.6788 18.7572 32.7105 18.6166 32.7105C18.4759 32.7105 18.3177 32.6577 18.1419 32.5523C17.9661 32.4398 17.7587 32.3167 17.5196 32.1831C17.2805 32.0495 16.9992 31.9299 16.6758 31.8245C16.3593 31.712 15.9831 31.6557 15.5471 31.6557C15.1534 31.6557 14.8088 31.7049 14.5134 31.8034C14.2251 31.8948 13.979 32.0249 13.7751 32.1936C13.5782 32.3624 13.4305 32.5663 13.3321 32.8054C13.2336 33.0375 13.1844 33.2941 13.1844 33.5754C13.1844 33.934 13.2829 34.2329 13.4797 34.472C13.6837 34.7111 13.9509 34.915 14.2814 35.0838C14.6119 35.2525 14.9881 35.4037 15.41 35.5373C15.8319 35.6709 16.2609 35.8151 16.6969 35.9698C17.1399 36.1175 17.5723 36.2933 17.9943 36.4972C18.4162 36.6941 18.7924 36.9472 19.1229 37.2566C19.4534 37.559 19.7171 37.9317 19.914 38.3747C20.1179 38.8177 20.2199 39.3557 20.2199 39.9886C20.2199 40.6777 20.1003 41.3246 19.8612 41.9294C19.6292 42.5271 19.2846 43.051 18.8275 43.501C18.3775 43.944 17.8255 44.2956 17.1715 44.5558C16.5175 44.809 15.7686 44.9355 14.9248 44.9355C14.4396 44.9355 13.9614 44.8863 13.4903 44.7879C13.0192 44.6964 12.5656 44.5628 12.1296 44.387C11.7007 44.2112 11.2963 44.0003 10.9166 43.7542C10.5439 43.508 10.2099 43.2338 9.91455 42.9314L10.7373 41.5707C10.8146 41.4723 10.9061 41.3914 11.0115 41.3281C11.124 41.2578 11.2471 41.2227 11.3807 41.2227C11.5565 41.2227 11.7464 41.2965 11.9503 41.4442C12.1542 41.5848 12.3933 41.743 12.6676 41.9188C12.9488 42.0946 13.2758 42.2564 13.6485 42.404C14.0282 42.5447 14.4818 42.615 15.0092 42.615C15.8179 42.615 16.4437 42.4251 16.8867 42.0454C17.3297 41.6586 17.5512 41.1066 17.5512 40.3894C17.5512 39.9886 17.4493 39.6616 17.2454 39.4084C17.0485 39.1553 16.7848 38.9443 16.4543 38.7755C16.1238 38.5997 15.7476 38.4521 15.3256 38.3325C14.9037 38.213 14.4748 38.0829 14.0388 37.9423C13.6028 37.8016 13.1739 37.6329 12.7519 37.436C12.33 37.2391 11.9538 36.9824 11.6233 36.666C11.2928 36.3495 11.0256 35.9557 10.8217 35.4846C10.6248 35.0064 10.5263 34.4193 10.5263 33.7231C10.5263 33.1676 10.6353 32.6261 10.8533 32.0987C11.0783 31.5713 11.4018 31.1037 11.8237 30.6958C12.2527 30.288 12.7766 29.961 13.3954 29.7149C14.0142 29.4688 14.7209 29.3457 15.5155 29.3457C16.4156 29.3457 17.2454 29.4863 18.0048 29.7676C18.7643 30.0489 19.4112 30.4427 19.9456 30.949L19.2495 32.2886Z" fill="white"/>
    <path d="M33.1333 29.5145V31.8456H28.545V44.7668H25.7076V31.8456H21.0981V29.5145H33.1333Z" fill="white"/>
    <path d="M48.7372 37.1406C48.7372 38.2587 48.5508 39.2959 48.1781 40.2523C47.8054 41.2016 47.2815 42.0243 46.6065 42.7205C45.9314 43.4166 45.1192 43.9616 44.1699 44.3554C43.2206 44.7422 42.1693 44.9355 41.0161 44.9355C39.8628 44.9355 38.8081 44.7422 37.8517 44.3554C36.9024 43.9616 36.0867 43.4166 35.4046 42.7205C34.7295 42.0243 34.2056 41.2016 33.8329 40.2523C33.4603 39.2959 33.2739 38.2587 33.2739 37.1406C33.2739 36.0225 33.4603 34.9888 33.8329 34.0395C34.2056 33.0832 34.7295 32.2569 35.4046 31.5608C36.0867 30.8646 36.9024 30.3231 37.8517 29.9364C38.8081 29.5426 39.8628 29.3457 41.0161 29.3457C42.1693 29.3457 43.2206 29.5426 44.1699 29.9364C45.1192 30.3302 45.9314 30.8752 46.6065 31.5713C47.2815 32.2604 47.8054 33.0832 48.1781 34.0395C48.5508 34.9888 48.7372 36.0225 48.7372 37.1406ZM45.8259 37.1406C45.8259 36.3038 45.7134 35.5549 45.4884 34.8939C45.2704 34.2259 44.954 33.6598 44.5391 33.1957C44.1242 32.7316 43.6179 32.3765 43.0202 32.1304C42.4295 31.8842 41.7615 31.7612 41.0161 31.7612C40.2707 31.7612 39.5991 31.8842 39.0014 32.1304C38.4037 32.3765 37.8939 32.7316 37.472 33.1957C37.0571 33.6598 36.7371 34.2259 36.5121 34.8939C36.2871 35.5549 36.1746 36.3038 36.1746 37.1406C36.1746 37.9774 36.2871 38.7298 36.5121 39.3979C36.7371 40.0589 37.0571 40.6214 37.472 41.0855C37.8939 41.5426 38.4037 41.8942 39.0014 42.1403C39.5991 42.3864 40.2707 42.5095 41.0161 42.5095C41.7615 42.5095 42.4295 42.3864 43.0202 42.1403C43.6179 41.8942 44.1242 41.5426 44.5391 41.0855C44.954 40.6214 45.2704 40.0589 45.4884 39.3979C45.7134 38.7298 45.8259 37.9774 45.8259 37.1406Z" fill="white"/>
    <path d="M53.9121 39.3979V44.7668H51.0747V29.5145H56.0428C57.0624 29.5145 57.9449 29.634 58.6903 29.8731C59.4357 30.1122 60.051 30.4462 60.5362 30.8752C61.0214 31.3041 61.38 31.8174 61.6121 32.4151C61.8441 33.0129 61.9601 33.6668 61.9601 34.3771C61.9601 35.1154 61.8371 35.794 61.591 36.4128C61.3448 37.0246 60.9757 37.552 60.4834 37.995C59.9912 38.438 59.3759 38.7826 58.6375 39.0287C57.8992 39.2748 57.0343 39.3979 56.0428 39.3979H53.9121ZM53.9121 37.1828H56.0428C56.5631 37.1828 57.0167 37.1195 57.4034 36.9929C57.7902 36.8593 58.1101 36.673 58.3633 36.4339C58.6164 36.1878 58.8063 35.8924 58.9329 35.5479C59.0595 35.1963 59.1227 34.806 59.1227 34.3771C59.1227 33.9692 59.0595 33.6 58.9329 33.2695C58.8063 32.939 58.6164 32.6577 58.3633 32.4257C58.1101 32.1936 57.7902 32.0178 57.4034 31.8983C57.0167 31.7717 56.5631 31.7084 56.0428 31.7084H53.9121V37.1828Z" fill="white"/>
    <path d="M34.4474 50.5864L31.5835 59.7919H30.2346L28.0739 53.1819C28.0484 53.1094 28.0228 53.0306 27.9972 52.9453C27.9759 52.8601 27.9546 52.7685 27.9333 52.6704C27.912 52.7685 27.8885 52.8601 27.863 52.9453C27.8417 53.0306 27.8182 53.1094 27.7926 53.1819L25.6127 59.7919H24.2639L21.4 50.5864H22.6529C22.7808 50.5864 22.8873 50.6184 22.9726 50.6823C23.0621 50.742 23.1217 50.8251 23.1516 50.9316L24.8776 56.8321C24.9117 56.9599 24.9436 57.0984 24.9735 57.2476C25.0033 57.3968 25.0331 57.5523 25.063 57.7143C25.0928 57.5523 25.1248 57.3968 25.1589 57.2476C25.1972 57.0942 25.2377 56.9557 25.2803 56.8321L27.2557 50.9316C27.2855 50.8464 27.3452 50.7676 27.4347 50.6951C27.5242 50.6227 27.6307 50.5864 27.7543 50.5864H28.189C28.3211 50.5864 28.4276 50.6205 28.5086 50.6887C28.5896 50.7526 28.6514 50.8336 28.694 50.9316L30.663 56.8321C30.7056 56.9557 30.7439 57.0899 30.778 57.2348C30.8164 57.3755 30.8505 57.5246 30.8803 57.6823C30.9101 57.5246 30.9378 57.3755 30.9634 57.2348C30.9932 57.0899 31.0252 56.9557 31.0593 56.8321L32.7789 50.9316C32.8045 50.8379 32.862 50.7569 32.9515 50.6887C33.0453 50.6205 33.154 50.5864 33.2776 50.5864H34.4474Z" fill="white"/>
    <path d="M39.9777 56.3398L38.7119 52.9773C38.6097 52.7173 38.5052 52.387 38.3987 51.9864C38.3518 52.1867 38.3007 52.3721 38.2453 52.5426C38.1899 52.7088 38.1387 52.8558 38.0918 52.9837L36.8261 56.3398H39.9777ZM42.8096 59.7919H41.6526C41.5205 59.7919 41.4139 59.7599 41.3329 59.696C41.252 59.6278 41.1902 59.5447 41.1475 59.4467L40.3804 57.4138H36.417L35.6498 59.4467C35.6158 59.5319 35.5561 59.6108 35.4709 59.6832C35.3856 59.7557 35.2791 59.7919 35.1512 59.7919H33.9941L37.6444 50.5864H39.1594L42.8096 59.7919Z" fill="white"/>
    <path d="M46.5561 54.9974C46.897 54.9974 47.1953 54.9569 47.451 54.8759C47.7067 54.7907 47.9198 54.6735 48.0903 54.5243C48.2608 54.3752 48.3886 54.1983 48.4739 53.9937C48.5591 53.7849 48.6017 53.5548 48.6017 53.3033C48.6017 52.8004 48.4355 52.4169 48.1031 52.1526C47.7707 51.8884 47.2678 51.7563 46.5944 51.7563H45.3798V54.9974H46.5561ZM50.8903 59.7919H49.5542C49.29 59.7919 49.0982 59.6896 48.9789 59.485L46.8309 56.3846C46.7585 56.278 46.6796 56.2013 46.5944 56.1544C46.5092 56.1076 46.3813 56.0841 46.2108 56.0841H45.3798V59.7919H43.8839V50.5864H46.5944C47.1996 50.5864 47.7195 50.6482 48.1542 50.7718C48.5932 50.8954 48.9533 51.0723 49.2346 51.3024C49.5159 51.5283 49.7226 51.801 49.8547 52.1207C49.9911 52.4403 50.0592 52.7962 50.0592 53.1882C50.0592 53.5079 50.0102 53.8062 49.9122 54.0832C49.8185 54.3602 49.6799 54.6117 49.4967 54.8376C49.3177 55.0634 49.0961 55.2595 48.8318 55.4257C48.5676 55.5919 48.2672 55.7219 47.9305 55.8156C48.1137 55.9264 48.2714 56.082 48.4035 56.2823L50.8903 59.7919Z" fill="white"/>
</svg>
