<svg width="15" height="12" fill="none" viewBox="0 0 15 12" xmlns="http://www.w3.org/2000/svg"><path
        d="M4.504 9.396c-1.408-.123-2.354-.806-2.88-2.103.473.055.915.07 1.387-.063-.74-.17-1.326-.519-1.78-1.072a2.96 2.96 0 0 1-.686-1.927c.433.213.869.351 1.39.366C1.252 4.119.828 3.51.654 2.756.477 1.996.584 1.269.987.569 2.66 2.5 4.778 3.55 7.329 3.727c-.009-.32-.05-.628-.023-.93.1-1.104.665-1.928 1.661-2.44 1.226-.629 2.592-.41 3.6.526.041.038.12.06.174.05a5.877 5.877 0 0 0 1.702-.62l.153-.08c-.244.705-.677 1.23-1.278 1.636.577-.05 1.122-.214 1.655-.427l.027.026c-.177.213-.336.441-.53.637-.286.282-.598.539-.896.812a.268.268 0 0 0-.088.176c.018 2.607-.913 4.834-2.828 6.646-1.202 1.155-2.666 1.844-4.325 2.12-2.153.36-4.188.032-6.088-1.037a1.783 1.783 0 0 1-.245-.16 6.691 6.691 0 0 0 2.368-.205 6.24 6.24 0 0 0 2.136-1.06Z" fill="currentColor"/></svg>
