<svg width="222" height="226" viewBox="0 0 222 226" fill="none" xmlns="http://www.w3.org/2000/svg">
<g clip-path="url(#clip0_405_16)">
<path d="M107.699 47.2C109.299 47.2 110.799 47.2 112.399 47.2C112.399 47.2 111.499 45.3 111.399 40.4C116.299 40.5 118.199 41.4 118.199 41.4C118.199 39.8 118.199 38.3 118.199 36.7C118.199 36.7 116.299 37.6 111.399 37.7C111.499 32.8 112.399 30.9 112.399 30.9C110.799 30.9 109.299 30.9 107.699 30.9C107.699 30.9 108.599 32.8 108.699 37.7C103.799 37.6 101.899 36.7 101.899 36.7C101.899 38.3 101.899 39.8 101.899 41.4C101.899 41.4 103.799 40.5 108.699 40.4C108.599 45.4 107.699 47.2 107.699 47.2Z" fill="#8A1002"/>
<path d="M169.299 70.7C169.299 85.1 169.299 96.1 169.299 110.5C169.299 127.6 169.299 162.5 169.299 169.6C162.599 167.9 155.499 166.4 148.699 166.2C135.499 165.8 120.699 169.5 110.299 178.5L110.199 178.6C100.599 170.2 86.9992 166.5 74.5992 166.3C66.6992 166.2 58.6992 167.7 50.8992 169.5C50.8992 155.4 50.8992 140.7 50.8992 126.7C50.8992 108 50.8992 71.8 50.8992 70.8C50.8992 69.9 47.1992 68.5 47.1992 69.4C47.1992 83.8 47.1992 96.2 47.1992 110.6C47.1992 129.3 47.1992 169.6 47.1992 170.7C47.1992 171.5 49.5992 171.4 49.9992 171.3C57.0992 169.6 64.5992 168.9 71.8992 168.7C84.6992 168.5 98.9992 171.3 108.399 180.6C109.099 181.3 111.099 181.3 111.899 180.6C121.499 171.1 135.699 168.3 148.599 168.6C155.799 168.8 163.199 169.7 170.199 171.6C170.599 171.7 172.899 171.9 172.899 171C172.899 156.6 172.899 141.5 172.899 127.1C172.899 108.3 172.899 70.5 172.899 69.4C172.899 68.3 169.299 69.7 169.299 70.7Z" fill="#8A1002"/>
<path d="M66.2996 57.9C72.9996 52.8 77.8996 47.1 86.3996 47.1C90.6996 47.1 93.5996 51.5 93.5996 54.2C93.5996 56.1 93.0996 59.9 88.8996 59.9C85.1996 59.9 84.1996 55.4 85.6996 53C80.2996 53 79.9996 61.4 88.9996 61.4C92.8996 61.4 96.7996 59.2 96.7996 54.5C96.7996 51.4 94.5996 45.9 86.2996 45.9C77.2996 45.9 71.4996 50.5 64.1996 56C56.6996 61.6 49.8996 63.2 40.5996 62.2V63.6C40.5996 79 40.5996 160.3 40.5996 160.9C40.5996 161.8 44.1996 163.2 44.1996 162.3C44.1996 148.4 44.1996 72.2 44.1996 64.1C52.1996 64.6 59.7996 62.8 66.2996 57.9Z" fill="#8A1002"/>
<path d="M179.399 62.2C170.099 63.1 163.299 61.6 155.799 56C148.499 50.5 142.699 45.9 133.699 45.9C125.499 45.9 123.199 51.4 123.199 54.5C123.199 59.2 127.199 61.4 130.999 61.4C139.999 61.4 139.699 53 134.299 53C135.799 55.5 134.699 59.9 131.099 59.9C126.899 59.9 126.399 56.1 126.399 54.2C126.399 51.5 129.299 47.1 133.599 47.1C142.099 47.1 146.999 52.8 153.699 57.9C160.099 62.8 167.799 64.6 175.799 64C175.799 72.1 175.799 148.3 175.799 162.2C175.799 163.1 179.399 161.7 179.399 160.8C179.399 160.2 179.399 78.9 179.399 63.5V62.2V62.2Z" fill="#8A1002"/>
<path d="M95.3 107.9C93.1 103.7 85.3 87.7 81.9 80.9C79.7 76.3 76.6 74.6 74.3 74C72.7 73.6 64.8 74 63 74V74.1C65.4 75.1 70.2 80.4 72 84.4C73.2 87.1 80.7 102.4 83.3 107.3C85.9 112.2 91.5 114 93.9 114.3C95 114.4 96.2 114.4 97.3 114.4C85.7 129.8 74.9 144 76.1 142.3C72.3 147 68.7 148.9 65.1 150V150.7C74.4 150.7 81 143.8 82.2 142.4C84.2 139.8 94.5 126 105.2 111.9V145.3H114.4V101.5C116.4 103.1 118.7 105.6 120.3 108.5C121.2 110.1 125.7 120.6 128.6 124.7C131.1 128.1 134.9 128.7 138.6 128.7C131.9 137.6 124.9 146.7 120.2 152.9C118.6 155 116.9 157.1 115.1 159C114.4 159.8 110.5 164.1 107.1 164.1C103.3 164.1 100.9 161.1 100.9 158.2C100.9 155 102.6 151.7 106.4 150.9C110 150.1 112.9 152 113.4 152.6L117 151.6C114.9 149.8 109.4 148.7 106.1 149.3C101 150.2 96.6 153.5 96.6 158.7C96.6 162.2 100.1 165.9 107 165.9C115.4 165.9 120.9 159.5 122.8 157.5C123.7 156.5 144.4 129 156.3 113.5C156.6 113.1 156.8 112.8 157 112.6C158.7 110.3 164.6 103 161.9 99.8H155V100.2C158.5 102.2 153.2 109.9 150.5 113.5C147.6 117.4 144.2 121.8 140.7 126.4C139.9 125.6 139.4 124.7 138.9 123.6C137.3 120.5 132.6 111.4 130.2 106.4C128.6 103.1 125.5 99.9 122.4 99.7C119.8 99.6 117.2 99.8 114.6 99.8C119.5 93.4 123.9 87.7 127 83.8C128.7 81.7 130.3 79.6 132.1 77.7C132.8 76.9 136.7 72.6 140.1 72.6C143.9 72.6 146.3 75.6 146.3 78.5C146.3 81.7 144.6 85 140.8 85.8C137.2 86.6 134.3 84.7 133.8 84.1L130.2 85.1C132.3 86.9 137.8 88 141.1 87.4C146.2 86.5 150.6 83.2 150.6 78C150.6 74.5 147.1 70.8 140.2 70.8C131.8 70.8 126.3 77.2 124.4 79.2C123.8 79.9 119.9 85 114.5 91.9V54.2H105.3V104C103.3 106.7 101.2 109.4 99.1 112.1C97.5 111.1 96.3 109.7 95.3 107.9Z" fill="#8A1002"/>
<path d="M33.8996 174.4L37.7996 178.8L37.2996 179.3C36.9996 179 36.6996 178.8 36.3996 178.9C36.0996 179 35.8996 179.3 35.6996 179.8L33.9996 185.4L34.0996 185.5L38.8996 183.9C38.9996 183.9 39.1996 183.8 39.3996 183.7C39.5996 183.6 39.6996 183.5 39.7996 183.5C39.9996 183.3 39.9996 183.1 39.9996 182.9C39.9996 182.7 39.7996 182.3 39.5996 181.9L40.0996 181.4L42.5996 184.2L42.0996 184.7C41.7996 184.6 41.4996 184.5 41.2996 184.5C40.9996 184.5 40.5996 184.6 40.0996 184.8L31.5996 187.7C30.1996 188.2 29.0996 188.3 28.1996 188.1C27.2996 187.9 26.4996 187.5 25.8996 186.8C25.3996 186.2 24.9996 185.6 24.9996 185C24.8996 184.4 25.0996 183.9 25.5996 183.5C25.8996 183.2 26.2996 183 26.6996 183C27.0996 183 27.4996 183.2 27.7996 183.5C28.0996 183.8 28.1996 184.1 28.1996 184.5C28.1996 184.8 28.0996 185.2 27.7996 185.6C27.5996 185.8 27.4996 186 27.4996 186.2C27.4996 186.4 27.5996 186.5 27.6996 186.7C27.9996 187 28.2996 187.1 28.8996 187.1C29.3996 187.1 29.9996 187 30.5996 186.8L33.6996 176.9C33.7996 176.6 33.7996 176.3 33.7996 176C33.7996 175.7 33.6996 175.4 33.5996 175.2L33.8996 174.4Z" fill="#8A1002"/>
<path d="M49.2994 189.8L48.8994 190.4C48.5994 190.2 48.3994 190.2 48.0994 190.2C47.7994 190.2 47.5994 190.4 47.3994 190.7L44.6994 194.2L50.1994 198.5L52.8994 195C53.0994 194.7 53.1994 194.5 53.1994 194.2C53.1994 193.9 53.0994 193.7 52.7994 193.5L53.1994 192.9L57.0994 195.9L56.6994 196.5C56.3994 196.3 56.0994 196.3 55.8994 196.3C55.6994 196.4 55.3994 196.5 55.2994 196.8L48.9994 205C48.7994 205.3 48.6994 205.5 48.6994 205.7C48.6994 205.9 48.7994 206.2 49.0994 206.5L48.6994 207.1L44.7994 204.1L45.1994 203.5C45.5994 203.6 45.8994 203.7 46.0994 203.7C46.2994 203.7 46.4994 203.5 46.6994 203.2L49.5994 199.4L43.9994 195L41.0994 198.8C40.8994 199.1 40.7994 199.3 40.7994 199.5C40.7994 199.7 40.8994 200 41.1994 200.3L40.7994 200.9L36.8994 197.9L37.2994 197.3C37.6994 197.4 37.9994 197.5 38.1994 197.4C38.3994 197.4 38.5994 197.2 38.7994 196.9L45.0994 188.8C45.2994 188.5 45.3994 188.3 45.3994 188C45.3994 187.7 45.2994 187.5 45.0994 187.3L45.4994 186.7L49.2994 189.8Z" fill="#8A1002"/>
<path d="M61.2996 198.1L65.6996 200.5L65.3996 201.1C65.0996 201 64.7996 201 64.5996 201.1C64.3996 201.2 64.0996 201.4 63.8996 201.8L59.0996 210.5C58.8996 210.9 58.7996 211.2 58.7996 211.5C58.8996 211.8 58.9996 212 59.2996 212.2L58.9996 212.8L54.5996 210.4L54.8996 209.8C55.1996 209.9 55.3996 209.9 55.6996 209.9C55.9996 209.8 56.1996 209.6 56.3996 209.2L61.1996 200.5C61.3996 200.1 61.4996 199.8 61.3996 199.5C61.2996 199.2 61.1996 199 60.8996 198.8L61.2996 198.1Z" fill="#8A1002"/>
<path d="M70 202.8L75 204.7C76.3 205.2 77.3 205.8 77.9 206.3C78.5 206.9 78.8 207.6 78.8 208.4C78.8 208.6 78.8 208.8 78.8 209C78.8 209.2 78.7 209.4 78.7 209.6C78.4 210.4 77.9 211 77.2 211.3C76.5 211.6 75.6 211.7 74.7 211.6L74.6 211.8C75.6 212.3 76.3 213 76.7 213.9C77.1 214.8 77.1 215.7 76.8 216.5C76.4 217.6 75.7 218.3 74.7 218.5C73.7 218.7 72.5 218.6 71 218L65 215.7L65.3 215C65.6 215.1 65.9 215.1 66.1 214.9C66.3 214.8 66.5 214.6 66.6 214.3L70.3 204.7C70.4 204.4 70.4 204.1 70.3 203.9C70.2 203.7 70 203.5 69.8 203.3L70 202.8ZM71.1 211L69 216.3L70.1 216.7C71 217.1 71.8 217.1 72.4 216.9C73 216.6 73.5 216.1 73.8 215.2C74.2 214.3 74.1 213.5 73.7 212.8C73.3 212.1 72.6 211.6 71.8 211.2L71.1 211ZM73.3 205.2L71.5 210L72.5 210.4C73.2 210.7 73.9 210.7 74.5 210.4C75.1 210.1 75.5 209.6 75.8 208.9C76.1 208.1 76.1 207.4 75.8 206.9C75.5 206.3 74.9 205.9 74 205.5L73.3 205.2Z" fill="#8A1002"/>
<path d="M84.8 208.1L94.5 210C94.8 210.1 95 210.1 95.1 210.1C95.2 210.1 95.3 210 95.4 209.9L96 210L95.3 213.5L94.6 213.4C94.5 212.6 94.3 212 94 211.6C93.6 211.2 92.9 210.9 91.9 210.7L88.6 210L87.6 214.9L89.8 215.3C90.4 215.4 90.8 215.4 91.1 215.3C91.4 215.2 91.6 214.9 91.7 214.4L92.4 214.5L91.7 218H91C91 217.6 91 217.2 90.8 217C90.6 216.7 90.3 216.6 90 216.5L87.4 216L86.3 221.7L91 222.6C91.7 222.7 92.4 222.6 93 222.3C93.6 222 94.1 221.4 94.4 220.8L95.1 220.9L94.4 224.4L82 221.9L82.1 221.2C82.4 221.2 82.7 221.2 82.9 221C83.1 220.8 83.3 220.5 83.4 220.1L85.3 210.4C85.4 210 85.3 209.6 85.2 209.4C85.1 209.2 84.8 209 84.5 208.9L84.8 208.1Z" fill="#8A1002"/>
<path d="M101.199 225.1V224.4C101.499 224.4 101.699 224.3 101.899 224.1C102.099 223.9 102.199 223.6 102.199 223.3L102.399 215.5C102.399 214.1 102.899 213 103.899 212.2C104.899 211.4 106.199 211 107.899 211.1C109.499 211.1 110.699 211.6 111.499 212.6C112.399 213.6 112.799 214.7 112.799 215.9C112.799 217 112.499 217.9 112.099 218.6C111.599 219.4 110.999 219.9 110.099 220.2C109.799 220.3 109.499 220.4 109.199 220.5C108.899 220.6 108.599 220.6 108.299 220.6C107.699 220.6 107.199 220.5 106.699 220.4C106.199 220.3 105.699 220 105.299 219.7L105.199 223.4C105.199 223.7 105.299 224 105.499 224.2C105.699 224.4 105.999 224.6 106.299 224.6V225.3L101.199 225.1ZM105.399 214L105.299 217.4C105.299 217.9 105.499 218.3 105.899 218.6C106.299 218.9 106.799 219.1 107.399 219.1C108.099 219.1 108.499 218.9 108.899 218.4C109.199 217.9 109.399 217 109.499 215.6C109.499 214.2 109.399 213.3 109.099 212.8C108.799 212.3 108.299 212 107.599 212C106.999 212 106.499 212.1 106.099 212.5C105.699 212.9 105.499 213.4 105.399 214Z" fill="#8A1002"/>
<path d="M129.4 220.7L130.1 221.4C129.2 222.4 128.3 223.1 127.5 223.6C126.7 224.1 125.8 224.4 124.9 224.5C122.8 224.8 121.1 224.3 119.6 223.1C118.1 221.9 117.3 220.2 117 218.2C116.7 216.1 117.1 214.3 118.2 212.9C119.3 211.4 120.8 210.6 122.6 210.3C123 210.2 123.4 210.2 123.7 210.2C124 210.2 124.4 210.2 124.8 210.3C125.1 210.4 125.4 210.4 125.6 210.4C125.8 210.4 126 210.4 126.1 210.4C126.2 210.4 126.2 210.4 126.3 210.3C126.4 210.3 126.5 210.2 126.5 210.1C126.5 210.1 126.5 210.1 126.6 210C126.6 210 126.6 209.9 126.7 209.9L127.4 209.8L127.8 213.1L127.1 213.2C126.7 212.5 126.2 212 125.4 211.6C124.6 211.2 123.8 211.1 123 211.2C122.9 211.2 122.8 211.3 122.6 211.3C122.5 211.3 122.3 211.4 122.2 211.4C121.2 211.8 120.5 212.5 120.2 213.5C119.9 214.5 119.9 215.9 120.1 218C120.3 219.9 120.9 221.3 121.7 222.1C122.5 222.9 123.6 223.2 125.1 223C125.8 222.9 126.5 222.7 127.1 222.3C128 221.9 128.7 221.4 129.4 220.7Z" fill="#8A1002"/>
<path d="M132.6 208.8L137.3 207.3L137.5 208C137.1 208.3 136.9 208.5 136.9 208.7C136.8 208.9 136.8 209.1 136.9 209.4L139.2 216.5H139.3L143.3 208.3L143 207.4C142.9 207.1 142.8 206.9 142.5 206.8C142.3 206.7 142 206.6 141.7 206.7L141.5 206L146.2 204.5L146.4 205.2C146.1 205.4 145.9 205.5 145.8 205.8C145.7 206 145.7 206.3 145.8 206.6L149 216.4C149.1 216.7 149.3 216.9 149.5 217.1C149.7 217.2 150 217.3 150.3 217.2L150.5 217.9L145.8 219.4L145.6 218.7C145.9 218.6 146.1 218.4 146.2 218.2C146.3 218 146.3 217.7 146.2 217.4L143.9 210.1H143.8L139.8 218.3L140.1 219.3C140.2 219.6 140.3 219.8 140.6 220C140.8 220.1 141.1 220.2 141.4 220.1L141.6 220.8L136.9 222.3L136.7 221.6C137 221.5 137.2 221.3 137.3 221C137.4 220.8 137.4 220.5 137.3 220.2L134.1 210.4C134 210.1 133.8 209.9 133.6 209.7C133.4 209.6 133.1 209.5 132.8 209.6L132.6 208.8Z" fill="#8A1002"/>
<path d="M149.8 202.5L150.5 202.1C150.7 202.1 150.9 202.1 151.1 202C151.3 201.9 151.5 201.8 151.8 201.7L159.8 197.3C160 197.2 160.2 197.1 160.4 196.9C160.6 196.8 160.7 196.6 160.8 196.4L161.5 196L163.2 199.2L162.6 199.5C161.9 199 161.3 198.7 160.7 198.6C160.1 198.5 159.4 198.6 158.8 199L157.6 199.6L162.9 209.4C163 209.7 163.2 209.9 163.4 210C163.6 210.1 163.9 210.1 164.3 210L164.6 210.6L160.2 213L159.9 212.4C160.2 212.1 160.4 211.9 160.4 211.7C160.4 211.5 160.4 211.3 160.2 211L154.9 201.2L153.9 201.7C153.2 202.1 152.6 202.6 152.3 203.2C152 203.8 151.9 204.5 152 205.3L151.4 205.6L149.8 202.5Z" fill="#8A1002"/>
<path d="M165.1 194.1L172.8 187.9C173 187.7 173.2 187.6 173.3 187.4C173.4 187.3 173.4 187.2 173.3 187L173.7 186.7L175.9 189.5L175.3 190C174.7 189.5 174.1 189.3 173.5 189.3C172.9 189.3 172.3 189.6 171.4 190.3L168.8 192.4L171.9 196.3L173.6 194.9C174.1 194.5 174.4 194.2 174.4 193.9C174.5 193.6 174.4 193.2 174.1 192.9L174.7 192.4L176.9 195.2L176.3 195.6C176 195.3 175.7 195.1 175.4 195.1C175.1 195.1 174.8 195.2 174.5 195.4L172.5 197L176.1 201.5L179.8 198.5C180.4 198 180.7 197.5 180.9 196.7C181.1 196 181 195.3 180.6 194.6L181.2 194.1L183.4 196.9L173.6 204.7L173.1 204.1C173.3 203.9 173.5 203.6 173.5 203.4C173.5 203.1 173.4 202.8 173.1 202.5L166.9 194.8C166.6 194.5 166.3 194.3 166.1 194.2C165.8 194.2 165.6 194.2 165.3 194.4L165.1 194.1Z" fill="#8A1002"/>
<path d="M177.199 183.6L177.699 183C177.899 182.9 178.099 182.9 178.199 182.7C178.399 182.6 178.499 182.4 178.699 182.2L184.799 175.4C184.999 175.2 185.099 175 185.199 174.9C185.299 174.7 185.399 174.5 185.399 174.3L185.899 173.7L188.599 176.1L188.099 176.6C187.299 176.4 186.599 176.3 185.999 176.4C185.399 176.5 184.799 176.9 184.399 177.4L183.499 178.4L191.799 185.8C191.999 186 192.299 186.1 192.499 186.1C192.699 186.1 192.999 186 193.299 185.8L193.799 186.3L190.499 190L189.999 189.5C190.199 189.1 190.199 188.8 190.199 188.6C190.199 188.4 189.999 188.2 189.799 188L181.499 180.6L180.799 181.4C180.199 182 179.899 182.7 179.799 183.3C179.699 183.9 179.899 184.6 180.299 185.4L179.799 185.9L177.199 183.6Z" fill="#8A1002"/>
<path d="M7.39922 155.9L5.59922 150.3L6.29922 150.1C6.39922 150.5 6.59922 150.8 6.99922 150.8C7.29922 150.9 7.59922 150.7 7.99922 150.2L11.8992 145.8V145.7L6.79922 145.3C6.69922 145.3 6.49922 145.3 6.29922 145.3C6.09922 145.3 5.99922 145.3 5.89922 145.4C5.69922 145.5 5.49922 145.6 5.49922 145.9C5.39922 146.1 5.39922 146.5 5.49922 147L4.79922 147.2L3.69922 143.7L4.39922 143.5C4.59922 143.8 4.79922 143.9 5.09922 144.1C5.29922 144.2 5.69922 144.3 6.29922 144.3L15.3992 145.1C16.8992 145.2 17.9992 145.6 18.7992 146.1C19.5992 146.6 20.0992 147.3 20.3992 148.2C20.6992 149 20.6992 149.7 20.4992 150.2C20.2992 150.8 19.8992 151.1 19.3992 151.3C18.8992 151.4 18.4992 151.4 18.0992 151.3C17.6992 151.2 17.3992 150.8 17.2992 150.4C17.1992 150 17.1992 149.7 17.2992 149.3C17.3992 149 17.6992 148.7 18.0992 148.5C18.3992 148.4 18.4992 148.2 18.5992 148.1C18.6992 147.9 18.6992 147.8 18.5992 147.6C18.4992 147.2 18.1992 146.9 17.6992 146.7C17.1992 146.5 16.6992 146.4 15.9992 146.3L9.09922 154.2C8.89922 154.5 8.69922 154.7 8.59922 155C8.49922 155.3 8.49922 155.6 8.49922 155.8L7.39922 155.9Z" fill="#8A1002"/>
<path d="M2.2 138.1L1.5 133.2L2.2 133.1C2.3 133.4 2.5 133.7 2.7 133.8C2.9 133.9 3.2 134 3.5 133.9L7.1 133.4C7 132.7 6.8 132.1 6.3 131.6C5.8 131.1 5.2 130.8 4.3 130.6C2.8 130.2 1.8 129.9 1.4 129.4C0.9 129 0.7 128.4 0.5 127.6C0.5 127.4 0.5 127.1 0.5 126.9C0.5 126.7 0.5 126.5 0.5 126.3L3.7 125.8L3.8 126.5C3.6 126.6 3.4 126.7 3.3 126.9C3.2 127.1 3.2 127.3 3.2 127.5C3.2 127.7 3.3 127.9 3.5 128.1C3.7 128.3 3.9 128.5 4.2 128.6C5.5 129.3 6.3 129.8 6.5 130.1C6.8 130.4 7 130.7 7.2 131.1H7.3C7.3 130.8 7.3 130.4 7.4 130C7.4 129.6 7.5 129.3 7.6 129C7.8 128.3 8.1 127.8 8.6 127.3C9 126.9 9.8 126.4 10.8 126C11.6 125.7 12.1 125.5 12.2 125.4C12.3 125.3 12.4 125.3 12.5 125.2C12.9 125 13.1 124.7 13.3 124.3C13.5 123.9 13.6 123.6 13.6 123.2L14.4 123.1C14.5 123.3 14.6 123.6 14.7 123.8C14.8 124.1 14.8 124.3 14.9 124.6C15 125.3 15 126 14.8 126.6C14.6 127.2 14.3 127.7 13.8 128.1C13.6 128.2 13.5 128.4 13.3 128.5C13.1 128.6 12.5 128.8 11.6 129.2C10.7 129.5 10.1 129.8 9.7 130.1C9.3 130.4 9 130.7 8.8 131C8.6 131.3 8.5 131.7 8.4 132.1C8.3 132.5 8.3 132.9 8.4 133.2L14.1 132.4C14.4 132.4 14.7 132.2 14.9 132.1C15.1 131.9 15.2 131.7 15.2 131.3L15.9 131.2L16.6 136.1L15.9 136.2C15.8 135.9 15.7 135.7 15.4 135.5C15.2 135.4 14.9 135.3 14.6 135.4L4.3 136.9C4 137 3.7 137.1 3.6 137.3C3.4 137.5 3.3 137.7 3.3 138.1H2.2Z" fill="#8A1002"/>
<path d="M14.2997 118.8H13.5997C13.5997 118.5 13.4997 118.3 13.2997 118.1C13.0997 117.9 12.7997 117.8 12.4997 117.8L4.59967 117.6C3.19967 117.6 2.09967 117.1 1.29967 116.1C0.499672 115.1 0.0996718 113.8 0.199672 112.1C0.199672 110.5 0.699672 109.3 1.69967 108.5C2.69967 107.6 3.79967 107.2 5.09967 107.2C6.19967 107.2 7.09967 107.5 7.89967 107.9C8.69967 108.4 9.19967 109 9.59967 109.9C9.69967 110.2 9.79967 110.5 9.89967 110.8C9.99967 111.1 9.99967 111.4 9.99967 111.7C9.99967 112.3 9.89967 112.8 9.79967 113.3C9.69967 113.8 9.39967 114.3 9.09967 114.7L12.8997 114.8C13.1997 114.8 13.4997 114.7 13.6997 114.5C13.8997 114.3 14.0997 114 14.0997 113.7H14.7997L14.2997 118.8ZM3.09967 114.5L6.49967 114.6C6.99967 114.6 7.39967 114.4 7.79967 114C8.09967 113.6 8.29967 113.1 8.29967 112.5C8.29967 111.8 8.09967 111.3 7.59967 111C7.09967 110.7 6.09967 110.5 4.69967 110.4C3.29967 110.4 2.29967 110.5 1.79967 110.8C1.29967 111.1 0.999672 111.6 0.999672 112.3C0.999672 112.9 1.09967 113.4 1.49967 113.8C1.89967 114.2 2.39967 114.5 3.09967 114.5Z" fill="#8A1002"/>
<path d="M13.8996 104.9C13.8996 104.6 13.6996 104.3 13.4996 104C13.2996 103.7 12.9996 103.4 12.5996 103.2L4.79961 97.6C4.59961 97.5 4.49961 97.4 4.29961 97.3C4.09961 97.2 3.89961 97.2 3.59961 97.1C3.39961 97.1 3.29961 97.1 3.19961 97.3C3.09961 97.5 2.99961 97.7 2.99961 97.9L2.29961 97.8C2.39961 97.3 2.29961 96.8 2.19961 96.3C2.09961 95.9 1.89961 95.5 1.59961 95.1L1.69961 94.4L13.5996 91.3C14.3996 91.1 14.9996 90.9 15.4996 90.7C15.9996 90.5 16.2996 90.2 16.4996 89.9L17.1996 90L16.1996 95.6L15.4996 95.5C15.5996 95.2 15.4996 94.9 15.2996 94.7C15.0996 94.5 14.8996 94.3 14.4996 94.2C14.3996 94.2 14.2996 94.2 14.1996 94.2C14.0996 94.2 13.8996 94.2 13.8996 94.2L12.4996 94.6L11.2996 100.9L12.3996 101.6C12.8996 102 13.3996 102.1 13.6996 101.9C13.9996 101.8 14.2996 101.4 14.4996 100.8L15.1996 100.9L14.4996 104.8L13.8996 104.9ZM5.49961 96.7L10.4996 100.2H10.5996L11.5996 95.1H11.4996L5.49961 96.7Z" fill="#8A1002"/>
<path d="M2.09925 82.5C1.69925 82.4 1.39925 82.1 1.19925 81.7C0.999251 81.3 0.899251 81 1.09925 80.6C1.19925 80.2 1.49925 79.9 1.89925 79.7C2.29925 79.5 2.69925 79.5 3.09925 79.6C3.49925 79.7 3.79925 80 3.99925 80.4C4.19925 80.8 4.19925 81.2 4.09925 81.6C3.99925 82 3.69925 82.3 3.29925 82.5C2.89925 82.6 2.49925 82.7 2.09925 82.5ZM3.39925 78.7C2.99925 78.6 2.69925 78.3 2.49925 77.9C2.29925 77.5 2.29925 77.1 2.39925 76.7C2.49925 76.3 2.79925 76 3.19925 75.8C3.59925 75.6 3.99925 75.6 4.39925 75.7C4.79925 75.8 5.09925 76.1 5.29925 76.5C5.49925 76.9 5.49925 77.3 5.39925 77.7C5.29925 78.1 4.99925 78.4 4.59925 78.6C4.19925 78.8 3.79925 78.8 3.39925 78.7ZM6.69925 77.7L7.39925 77.9C7.39925 78.3 7.39925 78.5 7.49925 78.7C7.59925 78.9 7.79925 79.1 8.09925 79.2L17.9993 82.5C18.2993 82.6 18.5992 82.6 18.7992 82.5C18.9992 82.4 19.1993 82.2 19.3993 81.9L20.0993 82.1L18.4993 86.8L17.7992 86.6C17.8992 86.3 17.7993 86 17.6993 85.8C17.5993 85.6 17.2993 85.4 16.9993 85.3L7.09925 82C6.79925 81.9 6.49925 81.9 6.29925 82C6.09925 82.1 5.89925 82.3 5.69925 82.6L4.99925 82.4L6.69925 77.7Z" fill="#8A1002"/>
<path d="M11.3 66.9L12 67.2C11.9 67.5 11.9 67.8 12 68C12.1 68.2 12.3 68.5 12.6 68.6L16.6 70.6L19.8 64.4L15.8 62.4C15.5 62.3 15.2 62.2 15 62.3C14.7 62.4 14.5 62.5 14.3 62.8L13.7 62.5L16 58.1L16.7 58.4C16.6 58.7 16.6 59 16.7 59.3C16.8 59.5 17 59.7 17.3 59.9L26.6 64.6C26.9 64.8 27.1 64.8 27.3 64.8C27.5 64.8 27.7 64.6 28 64.3L28.7 64.6L26.4 69L25.7 68.7C25.8 68.3 25.8 68 25.7 67.8C25.6 67.6 25.4 67.4 25.1 67.3L20.7 65.1L17.5 71.3L21.9 73.5C22.2 73.7 22.5 73.7 22.7 73.7C22.9 73.6 23.2 73.5 23.4 73.2L24.1 73.5L21.8 77.9L21 77.5C21.1 77.1 21.1 76.8 21 76.6C20.9 76.4 20.7 76.2 20.4 76.1L11.1 71.4C10.8 71.3 10.5 71.2 10.3 71.3C10 71.4 9.8 71.5 9.6 71.8L9 71.3L11.3 66.9Z" fill="#8A1002"/>
<path d="M35.6994 49.6H36.6994C36.7994 50.9 36.6994 52.1 36.4994 53C36.2994 53.9 35.8994 54.7 35.2994 55.5C33.9994 57.2 32.3994 58.1 30.4994 58.2C28.5994 58.4 26.7994 57.8 25.0994 56.5C23.3994 55.2 22.3994 53.6 22.0994 51.8C21.7994 50 22.1994 48.3 23.3994 46.8C23.5994 46.5 23.8994 46.2 24.0994 46C24.2994 45.8 24.5994 45.5 24.9994 45.3C25.2994 45.1 25.4994 44.9 25.6994 44.8C25.8994 44.7 25.9994 44.5 26.0994 44.4C26.0994 44.4 26.1994 44.3 26.1994 44.2C26.1994 44.1 26.1994 44 26.1994 43.9V43.8V43.7L26.5994 43.1L29.2994 45.1L28.8994 45.7C28.1994 45.5 27.3994 45.5 26.5994 45.8C25.7994 46.1 25.0994 46.6 24.5994 47.2C24.4994 47.3 24.4994 47.4 24.3994 47.5C24.2994 47.6 24.2994 47.7 24.1994 47.9C23.7994 48.9 23.7994 49.9 24.2994 50.8C24.7994 51.7 25.7994 52.8 27.3994 54C28.9994 55.2 30.2994 55.8 31.4994 55.8C32.5994 55.8 33.6994 55.2 34.5994 54C34.9994 53.5 35.2994 52.8 35.4994 52.1C35.6994 51.5 35.7994 50.6 35.6994 49.6Z" fill="#8A1002"/>
<path d="M35.2992 34.2L35.7992 34.7C35.5992 35 35.4992 35.2 35.4992 35.5C35.4992 35.8 35.6992 36 35.9992 36.3L38.4992 39L39.7992 37.8C41.1992 36.5 42.3992 35.9 43.5992 35.8C44.7992 35.7 45.7992 36.2 46.6992 37.1C47.4992 38 47.8992 39 47.7992 40.2C47.6992 41.4 47.0992 42.5 45.9992 43.6L41.2992 48L40.7992 47.5C40.9992 47.3 41.0992 47 41.0992 46.7C41.0992 46.4 40.8992 46.1 40.5992 45.8L33.7992 38.4C33.4992 38.1 33.1992 37.9 32.9992 37.9C32.6992 37.9 32.4992 37.9 32.1992 38.1L31.6992 37.6L35.2992 34.2ZM39.1992 39.9L43.4992 44.5L44.3992 43.7C45.1992 43 45.4992 42.3 45.4992 41.6C45.4992 40.9 45.0992 40.2 44.4992 39.5C43.7992 38.7 43.0992 38.3 42.3992 38.2C41.6992 38.1 40.9992 38.4 40.1992 39.1L39.1992 39.9Z" fill="#8A1002"/>
<path d="M44.8994 25.9L49.0994 23.2001L49.4994 23.8C49.1994 24 48.9994 24.3 48.9994 24.5C48.9994 24.7 48.9994 25 49.1994 25.3L51.1994 28.3C51.7994 27.9 52.2994 27.4 52.4994 26.8C52.6994 26.2 52.6994 25.4 52.5994 24.5C52.2994 23 52.1994 21.9 52.3994 21.3C52.5994 20.7 52.9994 20.2 53.6994 19.8C53.8994 19.7 54.0994 19.6 54.2994 19.5C54.4994 19.4 54.6994 19.3 54.8994 19.3L56.6994 22L55.9994 22.4C55.7994 22.3 55.5994 22.2001 55.3994 22.2001C55.1994 22.2001 54.9994 22.2 54.8994 22.3C54.6994 22.4 54.5994 22.6 54.4994 22.8C54.3994 23 54.2994 23.3001 54.2994 23.7001C54.1994 25.2001 54.0994 26.1 53.8994 26.4C53.7994 26.7 53.5994 27.1 53.2994 27.4L53.3994 27.5C53.6994 27.4 53.9994 27.2 54.3994 27.1C54.6994 27 55.0994 26.9 55.3994 26.8C56.0994 26.7 56.6994 26.7 57.2994 27C57.8994 27.2 58.5994 27.7 59.3994 28.4C60.0994 29 60.3994 29.4 60.4994 29.5C60.5994 29.6 60.6994 29.6001 60.7994 29.7001C61.0994 29.9001 61.4994 30.1 61.8994 30.1C62.2994 30.1 62.6994 30 62.9994 29.9L63.3994 30.6C63.1994 30.8 63.0994 31.0001 62.8994 31.2001C62.6994 31.4001 62.4994 31.6001 62.2994 31.7001C61.6994 32.1001 61.0994 32.4001 60.3994 32.4001C59.7994 32.5001 59.1994 32.4 58.5994 32.1C58.3994 32 58.1994 31.9 58.0994 31.8C57.8994 31.7 57.4994 31.3 56.7994 30.5C56.0994 29.8 55.5994 29.4 55.1994 29.1C54.7994 28.9 54.3994 28.7 53.9994 28.6C53.5994 28.6 53.1994 28.6001 52.8994 28.7001C52.4994 28.8001 52.1994 28.9001 51.8994 29.2001L54.9994 34C55.1994 34.3 55.3994 34.5 55.5994 34.5C55.7994 34.6 56.0994 34.5001 56.3994 34.4001L56.7994 35L52.5994 37.7001L52.1994 37.1C52.3994 36.9 52.5994 36.7001 52.5994 36.4001C52.5994 36.1001 52.5994 35.9 52.3994 35.6L46.6994 26.9C46.4994 26.6 46.2994 26.5 46.0994 26.4C45.8994 26.3 45.5994 26.4 45.2994 26.5L44.8994 25.9Z" fill="#8A1002"/>
<path d="M61.8994 15.4L66.4994 13.5L66.7994 14.2C66.4994 14.5 66.2994 14.7 66.1994 14.9C66.0994 15.1 66.1994 15.3 66.2994 15.6L69.1994 22.6H69.2994L72.5994 14L72.1994 13.1C72.0994 12.8 71.8994 12.6 71.6994 12.5C71.4994 12.4 71.1994 12.4 70.8994 12.4L70.5994 11.7L75.1994 9.80005L75.4994 10.5C75.1994 10.7 74.9994 10.9 74.9994 11.1C74.8994 11.3 74.9994 11.6 75.0994 11.9L79.0994 21.5C79.1994 21.8 79.3994 22 79.5994 22.1C79.7994 22.2 80.0994 22.2 80.3994 22.1L80.6994 22.8L75.9994 24.9L75.6994 24.2C75.9994 24 76.1994 23.8 76.1994 23.6C76.2994 23.4 76.2994 23.1 76.0994 22.7L73.0994 15.6H72.9994L69.6994 24.2L70.0994 25.2C70.1994 25.5 70.3994 25.7 70.5994 25.8C70.9994 26 71.2994 26 71.5994 26L71.8994 26.7001L67.2994 28.6L66.9994 27.9C67.2994 27.7 67.4994 27.5 67.4994 27.3C67.5994 27.1 67.5994 26.8 67.3994 26.5L63.3994 16.9C63.2994 16.6 63.0994 16.4 62.8994 16.3C62.6994 16.2 62.3994 16.2 62.0994 16.2L61.8994 15.4Z" fill="#8A1002"/>
<path d="M82 7.80002L86.9 6.80002L87 7.50002C86.6 7.70002 86.4 7.90002 86.3 8.10002C86.2 8.30002 86.2 8.50002 86.3 8.80002L87.8 16.2H87.9L92.8 8.50002L92.6 7.60002C92.5 7.30002 92.4 7.10002 92.2 6.90002C92 6.70002 91.7 6.70002 91.4 6.70002L91.2 6.00002L96.1 5.00002L96.2 5.70002C95.9 5.80002 95.7 6.00002 95.5 6.20002C95.4 6.40002 95.4 6.70002 95.4 7.00002L97.4 17.2C97.5 17.5 97.6 17.8 97.8 17.9C98 18.1 98.3 18.1 98.6 18.1L98.7 18.8L94 20L93.9 19.3C94.2 19.2 94.4 19 94.6 18.8C94.7 18.6 94.8 18.3 94.7 18L93.2 10.4H93.1L88.2 18.2L88.4 19.2C88.4 19.5 88.6 19.8 88.8 19.9C89 20.1 89.3 20.1 89.6 20.1L89.7 20.8L84.8 21.8L84.7 21.1C85 21 85.2 20.8 85.3 20.6C85.4 20.4 85.5 20.1 85.4 19.8L83.4 9.60002C83.3 9.30002 83.2 9.00002 83 8.90002C82.8 8.70002 82.5 8.70002 82.2 8.70002L82 7.80002ZM88.5 3.40002C89.4 3.20002 90.2 2.90002 90.7 2.50002C91.3 2.10002 91.5 1.70002 91.4 1.40002C91.4 1.30002 91.3 1.20002 91.3 1.20002C91.2 1.10002 91.1 1.10002 91 1.20002C90.9 1.20002 90.9 1.20002 90.8 1.30002C90.7 1.30002 90.6 1.40002 90.5 1.50002C90.2 1.70002 89.9 1.80002 89.6 1.70002C89.3 1.60002 89.1 1.40002 89.1 1.20002C89.1 0.900021 89.1 0.700021 89.3 0.500021C89.5 0.300021 89.7 0.200022 90.1 0.100022C90.6 2.14987e-05 91.1 0.100022 91.5 0.300022C91.9 0.500022 92.2 0.900021 92.2 1.30002C92.4 2.10002 92.1 2.80002 91.4 3.60002C90.7 4.40002 89.9 4.80002 88.8 5.00002C87.7 5.20002 86.7 5.10002 85.8 4.70002C84.9 4.30002 84.4 3.70002 84.2 2.90002C84.1 2.40002 84.2 2.00002 84.5 1.70002C84.8 1.30002 85.2 1.10002 85.7 1.00002C86 0.900022 86.3 1.00002 86.6 1.10002C86.8 1.20002 87 1.40002 87 1.70002C87 2.00002 86.9 2.20002 86.7 2.40002C86.5 2.60002 86.2 2.60002 85.8 2.50002C85.6 2.50002 85.5 2.40002 85.4 2.40002C85.3 2.40002 85.3 2.40002 85.2 2.40002C85.1 2.40002 85 2.50002 84.9 2.60002C85 2.50002 85 2.60002 85 2.70002C85.1 3.10002 85.4 3.30002 86.2 3.50002C86.9 3.60002 87.7 3.60002 88.5 3.40002Z" fill="#8A1002"/>
<path d="M124.299 5.10004L129.199 6.00004L129.099 6.70004C128.799 6.70004 128.499 6.80004 128.299 6.90004C128.099 7.10004 127.999 7.30004 127.899 7.60004L127.199 11.2C127.899 11.4 128.599 11.3 129.199 11C129.799 10.7 130.299 10.2 130.799 9.40004C131.599 8.10004 132.299 7.30004 132.899 7.00004C133.499 6.70004 134.099 6.60004 134.899 6.80004C135.099 6.80004 135.399 6.90004 135.599 7.00004C135.799 7.10004 135.999 7.20004 136.199 7.20004L135.599 10.4L134.899 10.3C134.899 10.1 134.799 9.90004 134.699 9.70004C134.599 9.50004 134.399 9.50004 134.199 9.40004C133.999 9.40004 133.799 9.40004 133.599 9.50004C133.399 9.60004 133.099 9.80004 132.899 10C131.799 11 131.099 11.6 130.699 11.7C130.399 11.9 129.999 12 129.599 12V12.1C129.899 12.2 130.199 12.4 130.599 12.5C130.899 12.7 131.199 12.8 131.499 13C132.099 13.4 132.499 13.9 132.799 14.5C133.099 15.1 133.199 15.9 133.299 17C133.299 17.9 133.399 18.4 133.399 18.6C133.399 18.7 133.399 18.8 133.499 18.9C133.599 19.3 133.799 19.7 133.999 20C134.299 20.3 134.599 20.5 134.999 20.6L134.899 21.4C134.599 21.4 134.399 21.5 134.099 21.5C133.799 21.5 133.599 21.5 133.299 21.4C132.599 21.3 131.899 21 131.399 20.6C130.899 20.2 130.499 19.7 130.299 19.2C130.199 19 130.199 18.8 130.099 18.6C130.099 18.4 129.999 17.8 129.999 16.8C129.999 15.8 129.899 15.1 129.799 14.7C129.699 14.2 129.499 13.8 129.199 13.5C128.999 13.2 128.699 13 128.299 12.8C127.999 12.6 127.599 12.5 127.199 12.4L126.099 18C125.999 18.3 126.099 18.6 126.199 18.8C126.299 19 126.499 19.2 126.899 19.3L126.799 20L121.899 19.1L121.999 18.4C122.299 18.4 122.599 18.3 122.799 18.2C122.999 18 123.099 17.8 123.199 17.5L125.199 7.30004C125.199 7.00004 125.199 6.70004 125.099 6.50004C124.999 6.30004 124.799 6.10004 124.499 6.00004L124.299 5.10004Z" fill="#8A1002"/>
<path d="M136.9 21.4C137.2 21.4 137.5 21.3 137.8 21.2C138.1 21 138.5 20.8 138.8 20.5L145.7 13.8C145.8 13.7 146 13.5 146.1 13.3C146.2 13.1 146.3 12.9 146.4 12.7C146.5 12.5 146.4 12.4 146.3 12.3C146.2 12.2 146 12.1 145.7 12L146 11.3C146.5 11.5 147 11.5 147.5 11.5C148 11.5 148.4 11.4 148.8 11.2L149.5 11.5L150.5 23.8C150.6 24.6 150.6 25.2 150.8 25.7C150.9 26.2 151.1 26.6 151.4 26.8L151.1 27.5L145.7 25.5L146 24.8C146.3 24.9 146.6 24.9 146.9 24.8C147.2 24.7 147.4 24.4 147.5 24.1C147.5 24 147.5 23.9 147.5 23.8C147.5 23.7 147.5 23.5 147.5 23.4L147.4 21.9L141.4 19.6L140.5 20.5C140 21 139.9 21.4 139.9 21.7C140 22 140.3 22.4 140.8 22.7L140.5 23.4L136.8 22L136.9 21.4ZM146.5 14.5L142.1 18.8V18.9L147 20.7V20.6L146.5 14.5Z" fill="#8A1002"/>
<path d="M157.899 14.8L158.599 15.2C158.699 15.4 158.799 15.5 158.999 15.7C159.099 15.8 159.399 16 159.599 16.1L167.599 20.6C167.799 20.7 167.999 20.8 168.199 20.9C168.399 21 168.599 21 168.899 21L169.599 21.4L167.799 24.6L167.199 24.2C167.299 23.4 167.199 22.7 166.899 22.1C166.599 21.5 166.199 21 165.599 20.7L164.399 20.1L158.899 30C158.699 30.3 158.699 30.5 158.699 30.8C158.799 31 158.899 31.3 159.199 31.5L158.799 32.1L154.399 29.7L154.799 29.1C155.199 29.2 155.499 29.2 155.699 29.1C155.899 29 156.099 28.8 156.199 28.5L161.699 18.6L160.699 18.1C159.999 17.7 159.299 17.5 158.599 17.6C157.899 17.7 157.299 18 156.699 18.5L156.099 18.1L157.899 14.8Z" fill="#8A1002"/>
<path d="M178.1 27.8C179.7 29 180.5 30.6 180.7 32.6C180.9 34.6 180.3 36.3 179.1 38C177.8 39.6 176.2 40.5 174.3 40.8C172.4 41.1 170.6 40.6 169 39.3C167.4 38 166.5 36.4 166.3 34.5C166.1 32.6 166.7 30.8 167.9 29.2C169.2 27.6 170.8 26.6 172.7 26.4C174.8 26.1 176.5 26.6 178.1 27.8ZM177.5 28.7C176.4 27.8 175.3 27.6 174.3 28.1C173.2 28.5 172 29.6 170.7 31.3C169.3 33 168.6 34.4 168.4 35.5C168.2 36.6 168.7 37.6 169.8 38.5C170.9 39.4 171.9 39.6 173 39.2C174 38.8 175.2 37.7 176.6 36C178 34.3 178.7 32.9 178.9 31.7C179 30.5 178.5 29.5 177.5 28.7Z" fill="#8A1002"/>
<path d="M188.7 37.7L191.9 41.2L185.9 52.2C185.6 52.8 185.4 53.2 185.4 53.4C185.4 53.7 185.5 53.9 185.6 54.2L185.1 54.7L182.6 52L188 42.2L187.8 42C186.6 42.7 185.3 43.4 184 44.2C182.6 44.9 181.5 45.4 180.7 45.7C179.6 46.1 178.7 46.3 178 46.3C177.3 46.3 176.8 46 176.3 45.5C175.9 45.1 175.8 44.7 175.8 44.3C175.8 43.9 176 43.5 176.3 43.2C176.6 43 176.9 42.8 177.2 42.8C177.6 42.8 177.9 42.9 178.1 43.2C178.2 43.3 178.2 43.3 178.3 43.4C178.3 43.5 178.4 43.6 178.5 43.7C178.7 44.1 178.7 44.4 178.8 44.4L178.9 44.5C179.1 44.7 179.5 44.8 180 44.6C180.5 44.5 181.5 44 183 43.4C184.3 42.8 185.4 42.2 186.4 41.6C187.4 41 188.1 40.6 188.5 40.2C188.8 39.9 189 39.6 189 39.2C189 38.9 188.9 38.6 188.6 38.3L188.4 38L188.7 37.7Z" fill="#8A1002"/>
<path d="M199.2 49.9L201.9 54.1L201.3 54.5C200.9 54.2 200.7 54.1 200.5 54C200.3 54 200.1 54.1 199.8 54.2L193.4 58.2L193.5 58.3L202.5 60.1L203.3 59.6C203.6 59.4 203.7 59.2 203.8 59C203.9 58.8 203.9 58.5 203.7 58.2L204.3 57.8L207 62L206.4 62.4C206.2 62.1 205.9 62 205.7 62C205.4 62 205.2 62 204.9 62.2L196.1 67.8C195.8 68 195.6 68.2 195.6 68.4C195.5 68.6 195.6 68.9 195.7 69.2L195.1 69.6L192.4 65.4L193 65C193.2 65.2 193.4 65.4 193.7 65.4C194 65.5 194.2 65.4 194.5 65.2L201 61.1L200.9 61L191.9 59.2L191 59.8C190.7 60 190.5 60.2 190.5 60.4C190.4 60.6 190.5 60.9 190.6 61.3L190 61.7L187.3 57.5L187.9 57.1C188.1 57.3 188.3 57.5 188.6 57.5C188.9 57.5 189.1 57.5 189.4 57.3L198.2 51.7C198.5 51.5 198.6 51.3 198.7 51.1C198.8 50.9 198.8 50.6 198.6 50.3L199.2 49.9Z" fill="#8A1002"/>
<path d="M209.9 67.9L211.7 72.5L211 72.8C210.8 72.5 210.6 72.4 210.4 72.3C210.2 72.2 209.9 72.2 209.6 72.4L199.1 76.5L201.3 82L211.8 77.9C212.1 77.8 212.3 77.6 212.4 77.4C212.5 77.2 212.6 76.9 212.5 76.6L213.2 76.3L215 80.9L214.3 81.2C214.1 80.9 213.9 80.7 213.7 80.6C213.5 80.5 213.2 80.5 212.9 80.7L203.4 84.5C203.1 84.6 202.9 84.7 202.8 84.8C202.7 84.9 202.6 85.1 202.5 85.5C202.3 86 202.1 86.4 201.9 86.7C201.7 87 201.4 87.2 201 87.3C200.2 87.6 199.5 87.5 198.6 87.1C197.8 86.7 197.2 86 196.8 85C196.7 84.7 196.6 84.3 196.5 83.9C196.4 83.5 196.3 83 196.3 82.5C196.3 82.2 196.3 81.9 196.3 81.7C196.3 81.4 196.3 81 196.3 80.4C196.3 79.8 196.3 79.3 196.3 78.9C196.3 78.5 196.2 78.1 196.1 77.9C196 77.7 195.9 77.6 195.8 77.5C195.7 77.4 195.6 77.4 195.5 77.5C195.4 77.5 195.4 77.5 195.4 77.6C195.4 77.7 195.4 77.7 195.4 77.8L195.5 78C195.5 78.2 195.5 78.3 195.5 78.4C195.4 78.5 195.3 78.6 195.2 78.7C195 78.8 194.8 78.8 194.7 78.7C194.5 78.6 194.4 78.4 194.3 78.2C194.2 77.9 194.2 77.6 194.3 77.4C194.4 77.2 194.7 77 194.9 76.9C195.5 76.7 196.1 76.8 196.7 77.3C197.3 77.8 197.8 78.5 198.1 79.4C198.3 79.9 198.4 80.4 198.5 80.9C198.6 81.4 198.6 82.1 198.7 82.9C198.8 84.1 198.8 84.8 198.8 85C198.8 85.2 198.9 85.4 199 85.6C199.1 86 199.4 86.2 199.7 86.4C200 86.6 200.3 86.6 200.7 86.4C201.1 86.3 201.3 86 201.4 85.6C201.5 85.2 201.5 84.8 201.3 84.5L196.9 73.3L197.6 73C197.7 73.3 197.9 73.4 198.2 73.5C198.5 73.6 198.7 73.6 199.1 73.5L208.8 69.7C209.1 69.6 209.3 69.4 209.4 69.1C209.5 68.9 209.5 68.6 209.5 68.3L209.9 67.9Z" fill="#8A1002"/>
<path d="M217.799 92.1L217.099 92.2C216.999 91.9 216.799 91.6 216.599 91.5C216.399 91.4 215.999 91.4 215.599 91.5L211.899 92.3L212.299 94C212.699 95.8 212.599 97.3 211.999 98.3C211.399 99.4 210.499 100 209.299 100.3C208.099 100.5 207.099 100.3 206.099 99.6C205.099 98.9 204.499 97.8 204.199 96.3L202.899 90L203.599 89.9C203.699 90.2 203.899 90.4 204.099 90.6C204.299 90.7 204.699 90.7 205.099 90.7L214.999 88.7C215.399 88.6 215.699 88.5 215.899 88.3C216.099 88.1 216.099 87.8 216.099 87.5L216.799 87.4L217.799 92.1ZM210.799 92.5L204.699 93.8L204.999 95C205.199 96 205.599 96.7 206.199 97C206.799 97.3 207.599 97.4 208.499 97.2C209.499 97 210.299 96.6 210.699 96C211.099 95.4 211.299 94.7 211.099 93.7L210.799 92.5Z" fill="#8A1002"/>
<path d="M219.8 104L220 109H219.3C219.2 108.7 219.1 108.4 218.9 108.3C218.7 108.1 218.4 108.1 218.1 108.1L214.5 108.3C214.5 109 214.7 109.7 215.1 110.2C215.5 110.7 216.2 111.1 217 111.4C218.5 111.9 219.4 112.4 219.8 112.8C220.2 113.3 220.4 113.9 220.5 114.7C220.5 114.9 220.5 115.2 220.5 115.4C220.5 115.6 220.4 115.8 220.4 116L217.1 116.1V115.4C217.3 115.3 217.5 115.2 217.6 115C217.7 114.8 217.8 114.6 217.8 114.5C217.8 114.3 217.7 114.1 217.6 113.9C217.5 113.7 217.2 113.5 216.9 113.3C215.7 112.4 215 111.9 214.7 111.6C214.5 111.3 214.3 111 214.1 110.6H214C214 110.9 213.9 111.3 213.8 111.7C213.7 112.1 213.6 112.4 213.5 112.7C213.2 113.4 212.9 113.9 212.4 114.3C211.9 114.7 211.1 115.1 210.1 115.4C209.2 115.6 208.7 115.8 208.6 115.8C208.5 115.8 208.4 115.9 208.3 116C207.9 116.2 207.6 116.4 207.4 116.8C207.2 117.1 207.1 117.5 207 117.9H206.2C206.1 117.7 206 117.4 206 117.1C205.9 116.8 205.9 116.6 205.9 116.3C205.9 115.6 206 114.9 206.2 114.3C206.5 113.7 206.8 113.3 207.3 112.9C207.5 112.8 207.7 112.7 207.8 112.6C208 112.5 208.6 112.4 209.6 112.1C210.5 111.9 211.2 111.6 211.6 111.4C212 111.2 212.4 110.9 212.6 110.6C212.8 110.3 213 110 213.1 109.6C213.2 109.2 213.3 108.8 213.2 108.5L207.5 108.8C207.2 108.8 206.9 108.9 206.7 109.1C206.5 109.3 206.4 109.5 206.4 109.9H205.7L205.5 104.9H206.2C206.3 105.2 206.4 105.5 206.6 105.6C206.8 105.8 207.1 105.8 207.4 105.8L217.8 105.3C218.1 105.3 218.4 105.2 218.6 105C218.8 104.8 218.9 104.6 218.9 104.3L219.8 104Z" fill="#8A1002"/>
<path d="M220.3 122.1L219.7 127.1L219 127C218.9 126.6 218.8 126.3 218.6 126.1C218.5 126 218.2 125.9 217.9 125.8L210.4 124.9V125L216.3 132.1L217.2 132.2C217.5 132.2 217.8 132.2 218 132C218.2 131.9 218.4 131.6 218.5 131.3L219.2 131.4L218.6 136.4L217.9 136.3C217.9 136 217.8 135.7 217.6 135.5C217.4 135.3 217.2 135.2 216.9 135.2L206.5 134C206.2 134 205.9 134 205.7 134.1C205.5 134.2 205.3 134.5 205.3 134.8L204.6 134.7L205.2 129.7L205.9 129.8C205.9 130.1 206 130.4 206.2 130.6C206.4 130.8 206.6 130.9 207 131L214.7 131.9V131.8L208.8 124.7L207.8 124.6C207.5 124.5 207.2 124.6 207 124.7C206.8 124.8 206.6 125.1 206.5 125.4L205.8 125.3L206.4 120.3L207.1 120.4C207.1 120.7 207.2 121 207.4 121.2C207.6 121.4 207.8 121.5 208.2 121.5L218.6 122.7C218.9 122.7 219.2 122.7 219.4 122.5C219.6 122.4 219.8 122.1 219.9 121.8L220.3 122.1Z" fill="#8A1002"/>
<path d="M217.4 142.1L215.9 146.9L215.2 146.7C215.2 146.2 215.1 145.9 215 145.8C214.9 145.6 214.7 145.5 214.4 145.4L207.2 143.2V143.3L211.7 151.3L212.6 151.6C212.9 151.7 213.2 151.7 213.4 151.6C213.6 151.5 213.8 151.3 214 151L214.7 151.2L213.2 156L212.5 155.8C212.5 155.5 212.5 155.2 212.4 155C212.3 154.8 212 154.6 211.7 154.5L201.7 151.4C201.4 151.3 201.1 151.3 200.9 151.4C200.7 151.5 200.5 151.7 200.3 152L199.6 151.8L201.1 147L201.8 147.2C201.7 147.5 201.8 147.8 201.9 148C202 148.2 202.3 148.4 202.6 148.5L210 150.8V150.7L205.5 142.7L204.5 142.4C204.2 142.3 203.9 142.3 203.7 142.4C203.5 142.5 203.3 142.7 203.1 143L202.4 142.8L203.9 138L204.6 138.2C204.5 138.5 204.6 138.8 204.7 139C204.8 139.2 205.1 139.4 205.4 139.5L215.4 142.6C215.7 142.7 216 142.7 216.2 142.6C216.4 142.5 216.6 142.3 216.8 142L217.4 142.1ZM218.1 150C217.8 150.9 217.7 151.7 217.8 152.4C217.9 153.1 218.1 153.5 218.4 153.6C218.5 153.6 218.6 153.6 218.7 153.6C218.8 153.6 218.8 153.5 218.9 153.4C218.9 153.3 218.9 153.3 218.9 153.2C218.9 153.1 218.9 153 218.9 152.8C218.8 152.4 218.9 152.1 219.1 151.9C219.3 151.7 219.5 151.6 219.8 151.7C220 151.8 220.2 151.9 220.3 152.2C220.4 152.4 220.4 152.7 220.3 153.1C220.1 153.6 219.9 154 219.5 154.2C219.1 154.4 218.7 154.5 218.2 154.4C217.4 154.2 216.9 153.6 216.6 152.6C216.3 151.7 216.2 150.7 216.6 149.6C216.9 148.5 217.5 147.7 218.3 147.1C219.1 146.5 219.9 146.3 220.6 146.6C221.1 146.7 221.4 147 221.6 147.4C221.8 147.8 221.8 148.3 221.6 148.8C221.5 149.1 221.3 149.4 221.1 149.5C220.9 149.7 220.6 149.7 220.4 149.6C220.1 149.5 220 149.3 219.9 149C219.8 148.7 220 148.4 220.2 148.2C220.3 148.1 220.4 147.9 220.4 147.9C220.4 147.8 220.5 147.8 220.5 147.7C220.5 147.6 220.5 147.5 220.5 147.4C220.5 147.3 220.4 147.3 220.3 147.3C220 147.2 219.5 147.4 219.1 148C218.8 148.4 218.4 149.1 218.1 150Z" fill="#8A1002"/>
</g>
<defs>
<clipPath id="clip0_405_16">
<rect width="221.8" height="225.2" fill="white"/>
</clipPath>
</defs>
</svg>
