<svg width="20" height="20" fill="none" xmlns="http://www.w3.org/2000/svg">
    <path fill-rule="evenodd" clip-rule="evenodd"
          d="M6.733.109a1.805 1.805 0 0 0-1.083.976c-.131.283-.165.573-.166 1.44l-.002 1.086h1.771V1.838h10.893v10.9h-1.771v1.774l1.085-.002c1.245-.002 1.611-.116 2.074-.643.476-.542.487-.712.456-6.895l-.028-5.634-.27-.436a1.919 1.919 0 0 0-.664-.658l-.395-.221-5.756-.018C8.195-.01 7.047.01 6.733.11ZM1.097 5.637c-.514.234-.895.71-1.016 1.27-.073.335-.094 2.09-.074 6.098l.028 5.627.246.418c.16.272.393.506.664.665l.418.246 5.624.029c6.242.03 6.349.023 6.912-.486.645-.583.624-.346.597-6.957l-.025-5.908-.266-.377a2.237 2.237 0 0 0-.656-.584l-.39-.206-5.854.002c-5.47.002-5.876.012-6.208.163Zm11.647 7.057v5.45H1.85v-10.9h10.893v5.45Z"
          fill="#000"/>
</svg>
