<svg width="15" height="15" fill="none" xmlns="http://www.w3.org/2000/svg">
    <path d="M0 7.459C.03 6.368.044 5.282.091 4.19c.04-.89.249-1.738.784-2.473C1.515.841 2.378.302 3.445.154c.77-.109 1.56-.152 2.339-.152C7.447-.007 9.11.015 10.77.054c.898.022 1.751.243 2.496.778.945.678 1.476 1.612 1.611 2.75.087.709.122 1.426.122 2.143.005 1.664-.013 3.328-.052 4.993-.022.895-.248 1.747-.784 2.49-.684.938-1.62 1.468-2.761 1.603-.714.087-1.442.117-2.16.122-1.65.004-3.306-.013-4.956-.052-.828-.018-1.63-.209-2.34-.665C.898 13.542.293 12.569.162 11.348c-.104-.995-.1-2-.14-3.003-.012-.291 0-.587 0-.878C.014 7.46.005 7.46 0 7.46Zm13.65.008h.03c0-.521.017-1.043-.005-1.56-.035-.769-.052-1.542-.17-2.298-.17-1.108-.844-1.83-1.942-2.086a7.717 7.717 0 0 0-1.516-.174c-1.384-.03-2.77-.043-4.154-.026-.74.009-1.49.06-2.222.16-1.08.153-1.881.909-2.099 1.956a8.612 8.612 0 0 0-.17 1.53c-.03 1.377-.043 2.755-.026 4.132.009.73.061 1.465.157 2.186.148 1.09.906 1.894 1.96 2.112.492.1 1.002.156 1.502.17 1.39.03 2.783.043 4.173.025.736-.008 1.48-.052 2.208-.16 1.05-.157 1.772-.77 2.06-1.79.143-.518.191-1.07.213-1.604.026-.856 0-1.712 0-2.573Z"
          fill="#242424"/>
    <path d="M11.367 7.467a3.84 3.84 0 0 1-3.854 3.828A3.843 3.843 0 0 1 3.67 7.45 3.84 3.84 0 0 1 7.526 3.62a3.843 3.843 0 0 1 3.841 3.846ZM7.526 4.964a2.514 2.514 0 0 0-2.504 2.49c-.005 1.364 1.128 2.499 2.5 2.499a2.515 2.515 0 0 0 2.504-2.495c0-1.36-1.133-2.49-2.5-2.494ZM11.524 2.575c.496 0 .888.386.893.882a.893.893 0 0 1-.893.903.902.902 0 0 1-.897-.903.9.9 0 0 1 .897-.882Z"
          fill="#242424"/>
</svg>
