<svg width="65" height="66" viewBox="0 0 65 66" fill="none" xmlns="http://www.w3.org/2000/svg">
    <path d="M.913 66V16.865l9.153-9.216h48.3v38.974l-9.152 9.217h-38.21L.913 66ZM3.12 17.753v42.862l6.947-6.996h38.266l7.885-7.94V9.815H11.003l-7.884 7.94Z" fill="#DE0303"/>
    <path d="M12.547 34.132c-.661 0-1.323-.056-1.874-.223-.552-.166-1.048-.333-1.434-.555l.607-1.72c.386.221.827.388 1.268.499.441.11.937.222 1.378.222.386 0 .662-.056.827-.167.166-.11.276-.277.276-.444 0-.166-.055-.277-.165-.333-.11-.056-.276-.167-.496-.167l-1.544-.277c-.607-.111-1.103-.333-1.434-.722-.33-.333-.496-.777-.496-1.332 0-.5.11-.944.386-1.333.275-.388.661-.666 1.158-.888.496-.222 1.102-.333 1.764-.333.551 0 1.103.055 1.6.166.495.111.936.333 1.322.611l-.661 1.666c-.276-.223-.662-.39-1.048-.5-.386-.111-.772-.222-1.103-.222-.44 0-.716.055-.882.166-.165.111-.276.278-.276.445 0 .11.056.277.166.333.11.055.276.166.441.222l1.544.277c.662.111 1.158.334 1.489.667.33.333.496.777.496 1.388 0 .555-.166.999-.441 1.388-.276.388-.662.666-1.158.888-.441.222-1.048.278-1.71.278ZM22.527 34.132c-1.047 0-1.82-.278-2.37-.778-.552-.5-.773-1.277-.773-2.276v-2.61h-1.378v-1.943h1.378V24.75l2.592-.611v2.387h1.82v1.943h-1.82v2.554c0 .445.11.722.276.833.22.167.44.222.716.222.166 0 .331 0 .441-.055.11 0 .276-.056.386-.111v1.998a1.43 1.43 0 0 1-.606.167c-.166 0-.441.056-.662.056ZM30.136 34.132c-.827 0-1.543-.167-2.15-.445a3.553 3.553 0 0 1-1.378-1.332c-.331-.555-.497-1.277-.497-2.054 0-.833.166-1.5.497-2.055.33-.555.771-.999 1.378-1.332.607-.333 1.323-.444 2.15-.444.828 0 1.544.166 2.096.444.551.277 1.047.777 1.378 1.332.33.556.496 1.277.496 2.055 0 .777-.165 1.499-.496 2.054-.33.61-.772 1.055-1.378 1.332-.607.334-1.268.445-2.096.445Zm0-1.888c.442 0 .772-.167.993-.444.276-.333.386-.778.386-1.5 0-.666-.11-1.165-.386-1.498-.276-.334-.607-.445-.993-.445-.44 0-.771.167-1.047.445-.276.277-.386.777-.386 1.499 0 .666.11 1.166.386 1.499.276.333.606.444 1.047.444ZM36.863 37.13v-8.55c0-.334 0-.667-.056-1 0-.333-.055-.666-.11-1h2.481l.166 1.333h-.166c.11-.444.442-.777.883-1.055.44-.277.992-.388 1.544-.388.661 0 1.213.166 1.709.444.496.277.882.777 1.158 1.332.275.556.44 1.277.44 2.11 0 .777-.165 1.5-.44 2.054-.276.556-.662 1.055-1.158 1.333a3.404 3.404 0 0 1-1.71.444 3.042 3.042 0 0 1-1.543-.389c-.497-.277-.772-.61-.883-1.055h.166v4.442h-2.481v-.055Zm4.025-4.886c.44 0 .827-.167 1.047-.444.22-.278.386-.778.386-1.5 0-.666-.11-1.165-.386-1.498-.275-.334-.606-.445-1.047-.445-.441 0-.772.167-1.048.445-.276.277-.386.777-.386 1.499 0 .666.11 1.166.386 1.499.276.333.607.444 1.048.444ZM11.886 46.124l-3.088-7.44h2.646l1.82 4.886h-.386l1.82-4.886h1.654l1.82 4.886h-.332l1.82-4.886h2.481l-3.032 7.44h-2.206l-1.985-5.053h.993l-1.875 5.053h-2.15ZM28.207 46.235a3.404 3.404 0 0 1-1.71-.444c-.496-.278-.882-.777-1.157-1.333-.276-.555-.442-1.277-.442-2.054 0-.833.11-1.499.442-2.11.275-.555.661-1 1.157-1.332.497-.333 1.048-.444 1.71-.444.551 0 1.102.11 1.544.388.44.278.771.611.882 1.055h-.166l.166-1.332h2.481c-.055.333-.055.666-.055.999 0 .333-.055.666-.055 1v5.496h-2.537l-.055-1.277h.166c-.166.444-.441.777-.883 1.055-.44.277-.937.333-1.488.333Zm.827-1.888c.44 0 .772-.166 1.047-.444.276-.333.386-.777.386-1.499 0-.666-.11-1.166-.386-1.499-.275-.333-.606-.444-1.047-.444-.441 0-.827.11-1.103.444-.276.333-.386.777-.386 1.499 0 .666.11 1.166.386 1.499.276.278.662.444 1.103.444ZM37.25 46.124v-5.386c0-.333 0-.666-.056-.999 0-.333-.055-.666-.11-1h2.481l.276 2.277h-.33c.11-.555.275-1 .44-1.388.22-.333.496-.61.827-.777a2.55 2.55 0 0 1 1.158-.278h.441c.11 0 .22.056.331.111v2.277c-.22-.112-.441-.167-.606-.223-.166-.055-.331-.055-.552-.055-.386 0-.717.055-.992.222-.276.166-.441.333-.552.666-.11.278-.165.666-.165 1.11v3.443h-2.592ZM65 5.29 61.361 4.4 60.534.792 58.163 3.18l.165 2.498a9.586 9.586 0 0 0-5.127 2.665l-4.532 4.584a9.52 9.52 0 0 0-2.757 7.107 9.383 9.383 0 0 0 7.058-2.776l4.531-4.584c1.434-1.444 2.316-3.276 2.647-5.164l2.481.167L65 5.289ZM10.728 22.472v-5.885c0-.166-.055-.389-.055-.555h1.103l.11.944h-.11c.11-.333.275-.555.551-.777.276-.167.607-.278.992-.278.386 0 .717.11 1.048.277.33.167.551.445.717.833.165.389.276.778.276 1.277 0 .5-.11.889-.276 1.277-.165.389-.386.61-.717.833-.33.222-.662.278-1.048.278s-.716-.111-.992-.278c-.276-.166-.496-.444-.551-.722h.11v2.887h-1.158v-.11Zm2.26-2.72c.332 0 .662-.111.828-.389.22-.222.33-.61.33-1.11 0-.5-.11-.889-.33-1.11-.22-.223-.497-.39-.827-.39-.331 0-.607.112-.827.39-.221.277-.331.61-.331 1.11 0 .5.11.888.33 1.11.221.278.497.389.828.389ZM20.212 20.64a2.79 2.79 0 0 1-1.213-.277 1.628 1.628 0 0 1-.772-.833 2.91 2.91 0 0 1-.276-1.277c0-.5.11-.889.276-1.222.165-.333.441-.61.772-.832.33-.223.717-.278 1.213-.278.496 0 .882.11 1.213.277.33.167.606.445.772.833.165.333.276.778.276 1.222 0 .444-.11.888-.276 1.277-.166.333-.441.61-.772.832-.331.167-.717.278-1.213.278Zm0-.888c.33 0 .606-.111.827-.389.22-.222.33-.61.33-1.11 0-.5-.11-.889-.33-1.11-.22-.223-.496-.39-.827-.39-.331 0-.607.112-.827.39-.22.277-.331.61-.331 1.11 0 .5.11.888.33 1.11.221.278.497.389.828.389ZM26.994 20.64c-.386 0-.717-.055-1.048-.11-.33-.112-.606-.223-.827-.39l.331-.777c.22.167.496.278.772.333.276.056.551.111.827.111.276 0 .496-.055.662-.166.165-.111.22-.222.22-.389 0-.11-.055-.222-.11-.333-.11-.056-.22-.167-.441-.167l-.882-.166c-.386-.111-.662-.222-.883-.444-.22-.222-.275-.444-.275-.778 0-.277.055-.555.22-.721.166-.222.386-.389.662-.5.276-.111.606-.167.992-.167.331 0 .662.056.938.111.275.111.551.223.716.39l-.385.72a1.312 1.312 0 0 0-.607-.332c-.22-.056-.496-.167-.717-.167-.33 0-.551.056-.661.167-.11.11-.221.277-.221.444 0 .11.055.222.11.333.11.111.22.167.386.167l.883.166c.386.056.716.222.882.389.22.166.33.444.33.777 0 .278-.055.555-.22.777a1.506 1.506 0 0 1-.662.5c-.275.111-.606.222-.992.222ZM33.72 20.64c-.55 0-.937-.166-1.213-.444-.275-.278-.386-.722-.386-1.277v-2.11h-.882v-.833h.882V14.81l1.103-.277v1.443h1.213v.833h-1.213v1.999c0 .333.055.555.166.666.11.111.275.167.496.167h.276c.055 0 .165-.056.22-.056v.889c-.11.055-.22.055-.33.11-.111.056-.221.056-.331.056Z" fill="#000"/>
</svg>
