<?xml version="1.0" standalone="no"?>
<!DOCTYPE svg PUBLIC "-//W3C//DTD SVG 20010904//EN"
 "http://www.w3.org/TR/2001/REC-SVG-20010904/DTD/svg10.dtd">
<svg version="1.0" xmlns="http://www.w3.org/2000/svg"
 width="528.000000pt" height="528.000000pt" viewBox="0 0 528.000000 528.000000"
 preserveAspectRatio="xMidYMid meet">
<metadata>
Created by potrace 1.14, written by Peter Selinger 2001-2017
</metadata>
<g transform="translate(0.000000,528.000000) scale(0.100000,-0.100000)"
fill="#000000" stroke="none">
<path d="M4782 5116 c-85 -87 -92 -96 -88 -127 5 -35 8 -122 7 -150 -1 -10
-12 -19 -28 -22 -16 -3 -35 -7 -43 -10 -8 -2 -28 -7 -43 -12 -46 -12 -128 -54
-180 -92 l-49 -34 -1756 0 -1756 1 -366 -370 -367 -369 0 -1966 0 -1966 403
406 403 406 1529 0 1530 0 366 370 366 370 0 1397 0 1397 30 45 c37 56 86 172
101 238 l10 50 47 -3 c26 -2 71 -5 100 -6 l54 -2 89 89 c49 49 89 92 89 97 0
9 3 8 -145 42 -11 2 -40 10 -65 16 -25 6 -50 12 -57 12 -9 0 -32 72 -47 148
-2 12 -17 81 -22 102 -1 4 -2 14 -3 22 0 8 -5 15 -9 15 -4 0 -49 -42 -100 -94z
m-607 -624 c-332 -332 -391 -413 -440 -600 -21 -85 -29 -209 -12 -214 26 -9
148 6 227 28 64 18 220 92 220 104 0 5 8 11 19 15 10 3 90 77 177 165 87 87
161 157 164 155 4 -2 7 -570 7 -1262 l0 -1258 -316 -317 -315 -318 -1531 0
-1531 0 -273 -275 c-151 -151 -275 -275 -277 -275 -2 0 -4 770 -4 1710 l0
1711 317 317 318 318 1627 0 c894 -1 1625 -2 1623 -4z"/>
<path d="M2653 4107 l-43 -10 0 -49 c0 -33 -4 -48 -12 -47 -46 6 -58 -1 -58
-34 0 -31 2 -33 33 -32 l32 0 5 -115 c3 -66 10 -125 18 -137 16 -29 62 -53
101 -53 49 0 61 9 61 46 0 32 -2 34 -34 34 -18 0 -39 6 -45 14 -7 8 -12 49
-12 92 -1 130 -5 120 48 120 44 -1 47 1 48 26 2 38 -4 43 -55 43 l-44 0 2 58
c1 31 0 56 -1 56 -1 -1 -21 -6 -44 -12z"/>
<path d="M1068 4003 c-15 -2 -37 -15 -50 -28 -22 -24 -45 -34 -34 -16 14 22
-6 38 -47 38 l-42 1 1 -262 2 -261 46 -3 46 -2 0 101 0 101 36 -23 c46 -28
118 -30 161 -4 79 47 104 190 50 291 -25 48 -100 78 -169 67z m53 -73 c64 -35
64 -185 0 -220 -50 -26 -114 5 -129 63 -12 46 4 118 31 142 26 23 70 30 98 15z"/>
<path d="M1573 3992 c-60 -32 -94 -91 -94 -167 -2 -116 51 -181 154 -192 72
-7 119 10 160 57 36 42 40 58 40 141 -1 112 -61 170 -180 174 -29 1 -64 -5
-80 -13z m127 -67 c63 -32 66 -169 5 -209 -36 -23 -71 -19 -105 12 -29 27 -35
50 -31 125 1 34 51 87 81 87 11 0 34 -7 50 -15z"/>
<path d="M2173 4000 c-73 -16 -119 -75 -103 -132 14 -47 53 -72 130 -84 25 -3
51 -11 58 -16 16 -14 15 -43 -3 -58 -24 -20 -108 -15 -153 9 -21 11 -33 3 -45
-31 -15 -43 123 -74 204 -48 51 17 89 61 89 103 -1 54 -43 92 -117 103 -21 3
-46 7 -56 10 -21 7 -39 38 -31 57 5 15 41 34 59 32 39 -5 86 -19 91 -26 9 -15
31 -10 38 9 3 9 8 22 11 28 7 14 -40 36 -85 40 -19 2 -39 5 -45 7 -5 2 -25 0
-42 -3z"/>
<path d="M1715 3330 c-38 -10 -82 -21 -97 -24 -27 -6 -28 -8 -28 -76 0 -77 3
-74 -78 -71 l-33 1 3 -78 3 -77 47 0 c26 -1 49 -3 52 -6 3 -3 6 -61 6 -129 2
-161 12 -203 64 -255 31 -31 55 -44 97 -54 53 -13 172 -11 186 3 3 3 7 41 8
85 1 76 0 79 -19 71 -31 -11 -89 -2 -109 18 -15 15 -18 37 -18 136 -1 79 2
121 10 125 6 4 37 6 68 4 31 -2 59 1 63 7 4 7 6 115 1 142 -1 3 -30 6 -66 6
-36 0 -68 2 -72 5 -3 3 -5 44 -5 91 0 47 -2 87 -6 89 -4 2 -38 -4 -77 -13z"/>
<path d="M952 3156 c-118 -39 -181 -141 -147 -240 23 -66 66 -97 160 -115 122
-24 154 -33 159 -47 24 -63 -93 -79 -231 -32 l-70 25 -13 -46 c-7 -25 -16 -50
-20 -56 -18 -27 -2 -41 75 -67 64 -21 99 -26 171 -26 135 1 212 36 249 114 60
126 4 228 -138 253 -99 17 -110 20 -139 32 -40 16 -34 68 9 76 61 11 113 1
213 -41 11 -5 21 8 38 52 12 32 22 62 22 68 0 5 -21 21 -47 33 -61 30 -223 39
-291 17z"/>
<path d="M2350 3152 c-88 -22 -147 -68 -188 -147 -23 -43 -26 -62 -26 -140 0
-102 3 -120 38 -178 54 -94 153 -138 296 -134 185 6 288 106 296 288 5 126
-35 211 -133 278 -18 12 -33 19 -33 15 0 -3 -6 -2 -12 4 -29 24 -168 32 -238
14z m158 -158 c37 -26 50 -63 48 -144 -1 -60 -5 -81 -23 -106 -53 -74 -175
-44 -190 47 -18 109 5 186 62 210 33 13 79 10 103 -7z"/>
<path d="M3368 3164 c-2 -2 -20 -4 -39 -5 -41 -3 -75 -19 -118 -55 l-31 -26 0
36 c0 40 4 39 -115 38 -91 0 -97 -1 -90 -12 11 -17 14 -116 14 -480 l1 -356
93 2 c50 1 95 2 100 3 4 0 7 72 7 159 1 126 3 154 13 141 40 -53 181 -80 258
-49 143 58 209 240 152 425 -12 40 -72 120 -104 139 -32 19 -134 48 -141 40z
m22 -184 c50 -57 46 -203 -7 -252 -35 -33 -111 -33 -147 1 -56 53 -52 207 6
256 28 23 39 26 80 23 34 -4 54 -12 68 -28z"/>
<path d="M2223 2191 c-67 -17 -118 -64 -160 -144 -24 -46 -27 -64 -27 -152 -1
-94 1 -105 32 -168 53 -108 145 -157 263 -143 58 7 83 18 119 52 l26 24 -1
-33 0 -32 103 -3 102 -3 0 138 c0 76 2 211 3 301 l3 162 -98 0 c-95 0 -98 -1
-98 -22 0 -41 -14 -51 -36 -27 -40 44 -154 69 -231 50z m194 -162 c46 -17 73
-132 52 -215 -18 -65 -88 -97 -153 -70 -52 22 -69 55 -70 140 0 88 21 133 74
152 34 12 50 11 97 -7z"/>
<path d="M3378 2194 c-2 -1 -15 -4 -28 -6 -51 -8 -120 -64 -120 -98 0 -13 -1
-13 -10 0 -5 8 -10 29 -10 46 0 16 -4 34 -9 40 -6 5 -51 8 -100 6 l-91 -3 4
-52 c3 -29 5 -161 5 -294 l1 -243 104 0 104 0 0 154 c1 85 4 171 8 191 13 69
93 104 190 81 l30 -8 1 86 c0 48 -3 88 -7 91 -10 6 -68 14 -72 9z"/>
<path d="M750 2177 c0 -4 12 -36 26 -70 14 -34 41 -100 61 -147 19 -47 39 -94
44 -105 5 -11 31 -74 58 -140 l49 -120 86 -3 87 -3 13 33 c7 18 17 42 21 53 5
11 9 22 10 25 10 40 62 170 68 170 4 0 15 -17 23 -37 8 -21 19 -47 23 -58 5
-11 24 -57 41 -102 l32 -83 88 0 88 0 20 48 c11 26 41 99 66 162 26 63 51 124
56 135 13 27 100 243 100 247 0 2 -44 4 -98 4 l-99 0 -29 -75 c-15 -42 -29
-78 -29 -81 -1 -3 -5 -12 -8 -20 -4 -8 -19 -51 -35 -94 -21 -57 -31 -75 -38
-65 -5 8 -9 16 -9 19 0 3 -26 75 -58 160 l-58 156 -67 -1 -66 0 -60 -162 c-34
-89 -64 -165 -68 -169 -4 -4 -10 2 -14 12 -3 10 -10 28 -14 39 -5 11 -30 79
-57 150 l-48 130 -103 0 c-56 0 -102 -3 -102 -8z"/>
</g>
</svg>
