<svg width="21" height="21" viewBox="0 0 21 21" fill="none" xmlns="http://www.w3.org/2000/svg">
    <path d="M14.51 2.608a4.18 4.18 0 0 1 4.168 4.168v8.337a4.181 4.181 0 0 1-4.169 4.169H6.173a4.181 4.181 0 0 1-4.169-4.17V6.777a4.181 4.181 0 0 1 4.169-4.168h8.336Zm0-1.667H6.172C2.963.94.337 3.567.337 6.776v8.337c0 3.21 2.626 5.836 5.836 5.836h8.336c3.21 0 5.836-2.626 5.836-5.836V6.776c0-3.21-2.626-5.835-5.836-5.835Z" fill="#fff"/>
    <path d="M15.76 6.776a1.25 1.25 0 1 1 0-2.5 1.25 1.25 0 0 1 0 2.5Zm-5.418.834a3.335 3.335 0 1 1 0 6.67 3.335 3.335 0 0 1 0-6.67Zm0-1.667a5.002 5.002 0 1 0 0 10.004 5.002 5.002 0 0 0 0-10.004Z" fill="#fff"/>
</svg>
