<svg width="19" height="19" viewBox="0 0 19 19" fill="none" xmlns="http://www.w3.org/2000/svg">
    <path d="M17.526.417H2.153C1.313.417.579 1.02.579 1.85V17.26c0 .834.734 1.578 1.574 1.578h15.368c.845 0 1.478-.749 1.478-1.578V1.85c.005-.83-.633-1.434-1.473-1.434ZM6.29 15.77H3.65V7.566H6.29v8.205ZM5.06 6.319h-.02c-.844 0-1.39-.63-1.39-1.416 0-.801.56-1.415 1.424-1.415.864 0 1.392.61 1.41 1.415 0 .787-.546 1.416-1.424 1.416Zm10.872 9.452h-2.639v-4.486c0-1.075-.384-1.81-1.338-1.81-.73 0-1.162.494-1.354.975-.072.172-.09.408-.09.648v4.673h-2.64V7.566h2.64v1.142c.383-.547.983-1.334 2.379-1.334 1.732 0 3.043 1.142 3.043 3.603v4.794Z" fill="#fff"/>
</svg>
