<svg width="69" height="71" viewBox="0 0 69 71" fill="none" xmlns="http://www.w3.org/2000/svg">
    <path d="M0 71V19.408l9.648-9.677H60.56v40.924l-9.648 9.677H10.636L0 71Zm2.325-50.66v45.005L9.648 58h40.335l8.311-8.336v-37.66H10.636l-8.311 8.337Z" fill="#DE0303"/>
    <path d="M12.264 37.538c-.698 0-1.395-.058-1.976-.233-.582-.175-1.105-.35-1.512-.583l.64-1.807c.407.233.871.408 1.336.524.465.117.989.233 1.453.233.407 0 .698-.058.872-.174.175-.117.29-.292.29-.467 0-.175-.057-.291-.174-.35-.116-.058-.29-.174-.523-.174l-1.627-.292c-.64-.116-1.162-.35-1.511-.758-.349-.35-.523-.816-.523-1.399 0-.524.116-.99.407-1.399.29-.408.697-.7 1.22-.933.523-.233 1.163-.35 1.86-.35.581 0 1.162.059 1.685.175.524.117.989.35 1.395.642l-.697 1.749c-.29-.234-.697-.409-1.104-.525-.407-.117-.814-.233-1.163-.233-.465 0-.755.058-.93.175-.174.116-.29.291-.29.466 0 .117.058.292.174.35.116.058.29.175.465.233l1.627.291c.698.117 1.221.35 1.57.7.348.35.523.816.523 1.457 0 .583-.175 1.05-.465 1.458-.29.408-.698.7-1.22.932-.466.234-1.105.292-1.802.292ZM22.783 37.538c-1.104 0-1.918-.291-2.499-.816-.58-.525-.813-1.34-.813-2.39v-2.74h-1.453v-2.04h1.453v-1.866l2.731-.641v2.506h1.918v2.04h-1.918v2.682c0 .467.116.758.29.875.233.175.466.233.756.233.175 0 .35 0 .465-.058.117 0 .29-.059.407-.117v2.099a1.512 1.512 0 0 1-.64.175c-.174 0-.464.058-.697.058ZM30.804 37.538c-.871 0-1.627-.175-2.266-.466a3.739 3.739 0 0 1-1.453-1.4c-.35-.582-.524-1.34-.524-2.156 0-.875.175-1.574.524-2.157a3.737 3.737 0 0 1 1.453-1.4c.639-.35 1.395-.466 2.266-.466.872 0 1.628.175 2.209.467.581.291 1.104.816 1.453 1.399.349.583.523 1.34.523 2.157 0 .816-.174 1.574-.523 2.157-.349.64-.814 1.107-1.453 1.399-.64.35-1.337.466-2.209.466Zm0-1.982c.465 0 .814-.175 1.046-.466.291-.35.407-.816.407-1.574 0-.7-.116-1.224-.407-1.574-.29-.35-.639-.467-1.046-.467-.465 0-.813.175-1.104.467-.29.291-.407.816-.407 1.574 0 .7.116 1.224.407 1.574.29.35.64.466 1.104.466ZM37.894 40.686V31.71c0-.35 0-.7-.058-1.05 0-.35-.058-.7-.116-1.05h2.615l.175 1.4h-.175c.116-.466.465-.816.93-1.108.465-.291 1.046-.408 1.627-.408.698 0 1.279.175 1.802.467.523.291.93.816 1.22 1.399.291.583.466 1.34.466 2.215 0 .816-.175 1.574-.465 2.157-.291.583-.698 1.108-1.22 1.4a3.6 3.6 0 0 1-1.803.465 3.217 3.217 0 0 1-1.627-.408c-.523-.291-.814-.64-.93-1.107h.175v4.663h-2.616v-.058Zm4.243-5.13c.465 0 .872-.175 1.104-.466.233-.292.407-.816.407-1.574 0-.7-.116-1.224-.407-1.574-.29-.35-.64-.467-1.104-.467-.465 0-.814.175-1.104.467-.291.291-.407.816-.407 1.574 0 .7.116 1.224.407 1.574.29.35.639.466 1.104.466ZM11.566 50.13l-3.254-7.812h2.79l1.917 5.13h-.407l1.918-5.13h1.744l1.918 5.13h-.349l1.918-5.13h2.616L19.18 50.13h-2.325l-2.092-5.305h1.046l-1.976 5.305h-2.267ZM28.77 50.247a3.599 3.599 0 0 1-1.802-.467c-.523-.291-.93-.816-1.22-1.399-.291-.583-.466-1.34-.466-2.157 0-.874.116-1.574.465-2.215a3.56 3.56 0 0 1 1.22-1.4c.524-.349 1.105-.466 1.802-.466.582 0 1.163.117 1.628.408.465.292.814.642.93 1.108h-.175l.175-1.399h2.615c-.058.35-.058.7-.058 1.05 0 .35-.058.699-.058 1.049v5.771h-2.674l-.058-1.34h.175c-.175.465-.465.815-.93 1.107-.465.291-.988.35-1.57.35Zm.871-1.983c.465 0 .814-.174 1.105-.466.29-.35.406-.816.406-1.574 0-.7-.116-1.224-.407-1.574-.29-.35-.639-.466-1.104-.466-.465 0-.872.116-1.162.466-.29.35-.407.816-.407 1.574 0 .7.116 1.224.407 1.574.29.292.697.466 1.162.466ZM38.301 50.13v-5.655c0-.35 0-.7-.058-1.049 0-.35-.058-.7-.116-1.05h2.615l.29 2.39h-.348c.117-.582.29-1.048.465-1.457.233-.35.523-.64.872-.816a2.695 2.695 0 0 1 1.22-.291h.465c.117 0 .233.058.35.116v2.39c-.233-.116-.466-.174-.64-.233-.174-.058-.349-.058-.581-.058-.407 0-.756.058-1.047.233-.29.175-.464.35-.58.7-.117.291-.175.7-.175 1.166v3.614H38.3ZM68.93 5.009l-3.836-.933-.872-3.789-2.499 2.507.175 2.623a10.117 10.117 0 0 0-5.406 2.798l-8.02 8.045a9.974 9.974 0 0 0-2.906 7.462 9.911 9.911 0 0 0 7.44-2.915l8.02-8.045c1.51-1.515 2.44-3.44 2.79-5.421l2.615.175 2.499-2.507ZM10.345 25.296v-6.18c0-.174-.058-.407-.058-.582h1.162l.117.99h-.117c.117-.35.291-.582.582-.816.29-.174.639-.291 1.046-.291.407 0 .755.117 1.104.291.349.175.581.467.756.875.174.408.29.816.29 1.34 0 .525-.116.934-.29 1.342-.175.408-.407.64-.756.874-.349.233-.697.291-1.104.291-.407 0-.756-.116-1.046-.291-.29-.175-.523-.466-.582-.758h.117v3.032h-1.22v-.117Zm2.383-2.857c.349 0 .698-.116.872-.408.232-.233.349-.64.349-1.166 0-.524-.117-.932-.35-1.165-.232-.234-.522-.409-.87-.409-.35 0-.64.117-.873.409-.232.291-.348.64-.348 1.165s.116.933.348 1.166c.233.292.523.408.872.408ZM20.342 23.372a2.95 2.95 0 0 1-1.279-.291 1.712 1.712 0 0 1-.813-.875 3.047 3.047 0 0 1-.291-1.34c0-.525.116-.933.29-1.283.175-.35.466-.641.814-.874.349-.234.756-.292 1.279-.292.523 0 .93.117 1.279.291.348.175.639.467.813.875.175.35.29.816.29 1.282 0 .467-.115.933-.29 1.341-.174.35-.465.642-.814.875a2.763 2.763 0 0 1-1.278.291Zm0-.933c.349 0 .64-.116.872-.408.232-.233.348-.64.348-1.166 0-.524-.116-.932-.348-1.165-.233-.234-.523-.409-.872-.409s-.64.117-.872.409c-.232.291-.349.64-.349 1.165s.117.933.35 1.166c.232.292.522.408.87.408ZM27.49 23.372c-.406 0-.755-.058-1.104-.116-.348-.117-.639-.234-.871-.409l.348-.816c.233.175.523.292.814.35.29.058.581.117.872.117.29 0 .523-.059.697-.175.175-.117.233-.233.233-.408 0-.117-.058-.233-.116-.35-.117-.058-.233-.175-.465-.175l-.93-.175c-.407-.116-.698-.233-.93-.466-.233-.233-.29-.466-.29-.816 0-.292.057-.583.232-.758.174-.233.406-.408.697-.525.29-.116.64-.175 1.046-.175.349 0 .698.059.988.117.29.117.581.233.756.408l-.407.758a1.385 1.385 0 0 0-.64-.35c-.232-.058-.522-.175-.755-.175-.349 0-.581.058-.697.175-.117.117-.233.292-.233.466 0 .117.058.234.116.35a.527.527 0 0 0 .407.175l.93.175c.407.058.756.233.93.408.233.175.349.466.349.816 0 .292-.058.583-.233.816a1.587 1.587 0 0 1-.697.525c-.29.117-.64.233-1.046.233ZM34.581 23.372c-.581 0-.988-.175-1.278-.466-.291-.292-.407-.758-.407-1.341V19.35h-.93v-.875h.93v-1.224l1.162-.291v1.515h1.279v.875h-1.279v2.098c0 .35.058.583.175.7.116.117.29.175.523.175h.29c.058 0 .175-.058.233-.058v.932c-.117.059-.233.059-.35.117-.115.058-.232.058-.348.058Z" fill="#fff"/>
</svg>
